<svg height="414pt" viewBox="-6 0 414 414.41025" width="414pt" xmlns="http://www.w3.org/2000/svg"><path d="m144.074219 54.289062c-24.574219 2.089844-47.269531 13.992188-62.960938 33.019532-15.691406 19.027344-23.050781 43.574218-20.421875 68.09375 1.109375 10.101562 2.761719 22.230468 5.230469 36.015625.011719.074219.023437.144531.039063.21875 13.796874 76.136719 41.617187 149.046875 82.046874 215.019531 3.253907 5.296875 9.355469 8.140625 15.503907 7.214844 6.148437-.921875 11.152343-5.425782 12.707031-11.445313l6.59375-25.554687c6.75-26.097656 20.09375-50.019532 38.753906-69.472656l2.203125-2.292969c2.671875-2.773438 7.082031-2.863281 9.871094-.207031l2.660156 2.546874c20.414063 19.53125 35.171875 44.210938 42.726563 71.433594l6.699218 24.171875c1.601563 5.96875 6.636719 10.386719 12.761719 11.199219.746094.105469 1.503907.160156 2.257813.160156 5.367187.011719 10.347656-2.792968 13.117187-7.390625 63.476563-103.214843 82.101563-202.003906 87.550781-251.707031 2.925782-27.003906-6.296874-53.914062-25.171874-73.445312-18.878907-19.535157-45.457032-29.671876-72.546876-27.667969-15.992187 1.195312-83.785156 18.15625-100.648437 22.5-6.953125-3.339844-13.636719-7.226563-19.980469-11.617188-8.242187-5.445312-15.359375-10.148437-24.015625-10.828125-4.765625-.375-9.558593-.378906-14.324219-.007812-.21875.003906-.4375.015625-.652343.042968zm-46.625 38.734376c11.371093-11.765626 26.25-19.523438 42.40625-22.109376l8.929687 22.238282c2.4375 6.070312 2.273438 12.871094-.457031 18.816406-2.726563 5.945312-7.78125 10.503906-13.972656 12.613281l-.039063.011719c-14.363281 4.84375-24.699218 17.464844-26.617187 32.5l-.042969.339844c-1.238281 9.484375-8.039062 17.304687-17.257812 19.851562l-10.183594 2.8125c-1.609375-9.898437-2.777344-18.773437-3.617188-26.441406-2.464844-22.3125 5.183594-44.554688 20.851563-60.632812zm76.796875-14.601563c18.203125 12.023437 45.695312 30.191406 108.34375 22.359375 4.355468-.582031 7.425781-4.5625 6.882812-8.921875-.546875-4.359375-4.503906-7.464844-8.867187-6.957031-18.921875 2.367187-34.152344 2.214844-46.691407.542968 27.03125-6.605468 61.484376-14.589843 70.976563-15.300781 22.347656-1.652343 44.277344 6.710938 59.851563 22.824219 15.574218 16.113281 23.1875 38.316406 20.773437 60.59375-5.285156 48.210938-23.316406 143.890625-84.671875 244.09375l-6.394531-23.058594c-8.324219-30-24.589844-57.195312-47.082031-78.71875l-2.664063-2.546875c-9.167969-8.746093-23.679687-8.441406-32.46875.6875l-2.203125 2.292969c-20.5625 21.433594-35.269531 47.792969-42.707031 76.550781l-6.300781 24.402344c-37.789063-61.9375-64.203126-130.128906-78-201.355469l11.640624-3.222656c15.417969-4.253906 26.785157-17.328125 28.855469-33.1875l.042969-.339844c1.152344-8.996094 7.347656-16.542968 15.945312-19.429687l.035157-.015625c10.34375-3.527344 18.777343-11.152344 23.332031-21.085938 4.554688-9.929687 4.828125-21.296875.757812-31.4375l-6.851562-17.058594c.339844.019532.675781.039063 1.015625.0625 4.535156.359376 9.792969 3.832032 16.449219 8.230469zm0 0"/><path d="m56.390625 65.941406c1.789063 2.246094 4.644531 3.359375 7.480469 2.917969 2.832031-.4375 5.21875-2.363281 6.242187-5.042969 1.027344-2.679687.539063-5.703125-1.277343-7.925781l-31.730469-39.292969c-1.777344-2.269531-4.644531-3.410156-7.496094-2.976562-2.855469.433594-5.253906 2.371094-6.28125 5.066406-1.023437 2.699219-.515625 5.738281 1.328125 7.957031zm0 0"/><path d="m3.859375 68.699219 29.289063 19.167969c2.394531 1.582031 5.449218 1.761718 8.011718.472656 2.558594-1.289063 4.238282-3.847656 4.390625-6.710938.15625-2.863281-1.234375-5.59375-3.640625-7.152344l-29.292968-19.164062c-2.390626-1.582031-5.445313-1.765625-8.007813-.476562-2.5625 1.289062-4.238281 3.851562-4.390625 6.714843-.15625 2.863281 1.230469 5.589844 3.640625 7.148438zm0 0"/><path d="m80.230469 43.535156c1.023437 2.667969 3.394531 4.589844 6.21875 5.039063 2.828125.445312 5.675781-.652344 7.472656-2.875 1.800781-2.226563 2.273437-5.242188 1.242187-7.910157l-12.570312-32.671874c-1.589844-4.117188-6.214844-6.167969-10.335938-4.582032-4.121093 1.582032-6.175781 6.207032-4.597656 10.328125zm0 0"/></svg>