<?xml version="1.0"?>
<svg xmlns="http://www.w3.org/2000/svg" xmlns:xlink="http://www.w3.org/1999/xlink" xmlns:svgjs="http://svgjs.com/svgjs" version="1.1" width="512" height="512" x="0" y="0" viewBox="0 0 128 128" style="enable-background:new 0 0 512 512" xml:space="preserve" class=""><g><g xmlns="http://www.w3.org/2000/svg" id="icon"><path d="m115.793 31.323a32.123 32.123 0 0 0 -51.793-23.559 32.126 32.126 0 0 0 -43.894 46.52 31.263 31.263 0 0 1 7.425 14.464 37.917 37.917 0 0 1 .7 10.6c-2.337 26.169 8 45.964 18.126 47.623 5.673.929 6.063-23.338 12.419-36.956 2.417-5.179 3.081-9.98 5.22-13.974 2.139 3.994 2.8 8.795 5.22 13.974 6.356 13.619 6.746 37.886 12.419 36.956 10.124-1.659 20.463-21.454 18.126-47.623a37.913 37.913 0 0 1 .7-10.6 31.264 31.264 0 0 1 7.425-14.465 32.013 32.013 0 0 0 7.907-22.96z" fill="#d9e2e9" data-original="#d9e2e9" style="" class=""/><path d="m107.9 54.285a31.2 31.2 0 0 0 -7.422 14.464 37.672 37.672 0 0 0 -.709 10.6c2.334 26.173-8 45.962-18.124 47.627-2 .329-3.351-2.488-4.533-6.857 6.055-8.224 10.3-23.027 8.707-40.771a38.058 38.058 0 0 1 .709-10.6 31.205 31.205 0 0 1 7.422-14.464 32.129 32.129 0 0 0 -17.233-52.519 32.626 32.626 0 0 1 9.961-.627 32.131 32.131 0 0 1 21.222 53.147z" fill="#c1cdd3" data-original="#c1cdd3" style="" class=""/><path d="m46.72 128a3.208 3.208 0 0 1 -.521-.043c-10.865-1.78-21.324-22.218-18.961-48.7a37.075 37.075 0 0 0 -.688-10.317 30.032 30.032 0 0 0 -7.2-14 33.125 33.125 0 0 1 44.65-48.431 33.123 33.123 0 0 1 52.791 24.759 32.974 32.974 0 0 1 -8.145 23.674 30.025 30.025 0 0 0 -7.2 14 37.067 37.067 0 0 0 -.688 10.32c2.364 26.481-8.095 46.918-18.96 48.7-4.152.671-5.628-6.618-7.7-16.718-1.433-7-3.057-14.94-5.792-20.8a56.908 56.908 0 0 1 -2.7-7.36c-.506-1.643-1.001-3.219-1.606-4.684-.605 1.468-1.1 3.042-1.611 4.68a56.958 56.958 0 0 1 -2.7 7.362c-2.735 5.862-4.359 13.8-5.792 20.8-1.98 9.663-3.432 16.758-7.177 16.758zm17.28-54.076.882 1.646a39.415 39.415 0 0 1 2.64 6.911 55.39 55.39 0 0 0 2.605 7.112c2.835 6.076 4.484 14.136 5.939 21.247 1.487 7.271 3.214 15.508 5.411 15.146 8.827-1.446 19.676-19.854 17.292-46.547a39.025 39.025 0 0 1 .718-10.882 31.991 31.991 0 0 1 7.655-14.932 31 31 0 0 0 7.652-22.247 31.124 31.124 0 0 0 -50.18-22.824l-.614.478-.614-.478a31.126 31.126 0 0 0 -42.528 45.071 31.988 31.988 0 0 1 7.654 14.931 39.032 39.032 0 0 1 .718 10.883c-2.383 26.694 8.466 45.1 17.293 46.547 2.213.361 3.923-7.874 5.41-15.145 1.455-7.111 3.1-15.172 5.939-21.248a55.3 55.3 0 0 0 2.606-7.114 39.47 39.47 0 0 1 2.639-6.909z" fill="#ffffff" data-original="#2f3a5a" style="" class=""/><path d="m42.729 18.308-3.845-7.031-3.845 7.031-7.031 3.845 7.031 3.846 3.845 7.03 3.845-7.03 7.031-3.846z" fill="#ffffff" data-original="#ffffff" style=""/><path d="m38.884 34.029a1 1 0 0 1 -.877-.52l-3.707-6.774-6.773-3.7a1 1 0 0 1 0-1.755l6.773-3.7 3.707-6.78a1.04 1.04 0 0 1 1.754 0l3.705 6.774 6.773 3.7a1 1 0 0 1 0 1.755l-6.773 3.7-3.705 6.774a1 1 0 0 1 -.877.526zm-8.792-11.876 5.426 2.968a1 1 0 0 1 .4.4l2.969 5.427 2.969-5.427a1 1 0 0 1 .4-.4l5.426-2.968-5.432-2.967a1 1 0 0 1 -.4-.4l-2.969-5.427-2.969 5.427a1 1 0 0 1 -.4.4z" fill="#ffffff" data-original="#2f3a5a" style="" class=""/></g></g></svg>
