<?xml version="1.0" encoding="utf-8"?>
<svg viewBox="214.873 -47.59 399.053 550.474" xmlns="http://www.w3.org/2000/svg">
  <polygon points="393.41 -42.663 296.031 -42.663 247.342 33.479 296.031 109.621 393.41 109.621 442.101 33.479 393.41 -42.663" fill="#e6e6e6" style=""/>
  <path d="M 302.755 97.351 L 385.245 97.351 L 426.49 33.479 L 385.245 -30.394 L 302.755 -30.394 L 261.51 33.479 Z" fill="#fff" style=""/>
  <circle cx="385.6774" cy="81.43388" r="5.16936" fill="#6c63ff" transform="matrix(0.736169, 0, 0, 0.658203, 17.834763, -39.175217)" style=""/>
  <circle cx="385.6774" cy="110.38231" r="5.16936" fill="#6c63ff" transform="matrix(0.736169, 0, 0, 0.658203, 17.834763, -39.175217)" style=""/>
  <circle cx="385.6774" cy="139.33073" r="5.16936" fill="#6c63ff" transform="matrix(0.736169, 0, 0, 0.658203, 17.834763, -39.175217)" style=""/>
  <rect x="317.742" y="11.703" width="72.305" height="5.444" fill="#6c63ff" style=""/>
  <rect x="317.742" y="30.757" width="72.305" height="5.444" fill="#6c63ff" style=""/>
  <rect x="317.742" y="49.811" width="72.305" height="5.444" fill="#6c63ff" style=""/>
  <polygon points="550.665 639.737 538.405 639.736 532.573 592.448 550.667 592.449 550.665 639.737" fill="#9f616a" transform="matrix(1, 0, 0, 1, -69.494286, -154.735306)"/>
  <path d="M710.73392,775.42958l-39.53076-.00146v-.5a15.38731,15.38731,0,0,1,15.38648-15.38623h.001l24.144.001Z" transform="matrix(1, 0, 0, 1, -226.436798, -278.544037)" fill="#2f2e41"/>
  <polygon points="664.665 639.737 652.405 639.736 646.573 592.448 664.667 592.449 664.665 639.737" fill="#9f616a" transform="matrix(1, 0, 0, 1, -69.494286, -154.735306)"/>
  <path d="M824.73392,775.42958l-39.53076-.00146v-.5a15.38731,15.38731,0,0,1,15.38648-15.38623h.001l24.144.001Z" transform="matrix(1, 0, 0, 1, -226.436798, -278.544037)" fill="#2f2e41"/>
  <path d="M702.72093,523.57062s-10.29059,27.93152-8.8205,39.69214-10.29053,94.08515-8.82049,101.43555-1.4701,44.10242,0,49.98273-4.126,12.904-1.18583,18.78433,7.06614,17.96768,7.06614,17.96768l19.111-1.47009,2.94018-16.1709s8.8205-1.47009,7.35041-10.29059,7.3504-67.62366,7.3504-67.62366l24.99133-82.32446,35.28192,74.97406s1.4701,52.92285,5.88031,58.80316-4.41021,22.05121,0,27.93152,8.8205,16.1709,8.8205,16.1709h22.05121V739.67237s13.23071-7.3504,0-29.40161l-8.94019-132.42688-8.82049-60.27326Z" transform="matrix(1, 0, 0, 1, -226.436798, -278.544037)" fill="#2f2e41"/>
  <circle cx="600.5805" cy="187.45592" r="27.45748" fill="#a0616a" transform="matrix(1, 0, 0, 1, -69.494286, -154.735306)"/>
  <path d="M734.15719,309.37058q2.90616,7.42524,5.81249,14.85045c2.38187,6.0855,5.10983,12.59627,10.693,15.99248,6.89335,4.19321,16.09891,2.14859,22.76738-2.39371a35.55267,35.55267,0,0,0-16.0025-64.70912l-.27595,4.97045-6.09928-5.11247a5.92961,5.92961,0,0,1-9.21737,1.30354c1.6022,3.32109-.24695,7.37161-2.91728,9.91573-3.28072,3.12533-12.66394,6.88145-12.27456,12.46855C726.903,300.3849,732.64485,305.50673,734.15719,309.37058Z" transform="matrix(1, 0, 0, 1, -226.436798, -278.544037)" fill="#2f2e41"/>
  <path d="M833.10409,564.18693a11.62612,11.62612,0,0,0-4.98194-17.117l.54864-26.56207-16.06038-4.27033-.24794,37.52166a11.68914,11.68914,0,0,0,20.74162,10.42776Z" transform="matrix(1, 0, 0, 1, -226.436798, -278.544037)" fill="#9f616a"/>
  <path d="M777.91953,355.69214s-21.27734-10.63867-41.37262-3.54623-30.734,15.367-30.734,15.367l13.00281,68.56037-17.73108,92.20187s91.01984-7.09247,99.29431,0,8.27454-8.27453,8.27454-8.27453L801.561,432.527l13.00287-55.55752Z" transform="matrix(1, 0, 0, 1, -226.436798, -278.544037)" fill="#3f3d56"/>
  <path d="M688.11533,565.75982a11.62611,11.62611,0,0,0,.02419-17.82727l7.98411-25.33966-14.21547-8.60767-10.77251,35.94287a11.68915,11.68915,0,0,0,16.97968,15.83173Z" transform="matrix(1, 0, 0, 1, -226.436798, -278.544037)" fill="#9f616a"/>
  <path d="M714.08744,367.51291H705.8129s-13.00284,8.27454-13.00284,20.09528-18.91317,150.12363-18.91317,150.12363l20.09527,3.5462,17.73114-96.93021,13.00287-26.00567Z" transform="matrix(1, 0, 0, 1, -226.436798, -278.544037)" fill="#3f3d56"/>
  <path d="M792.10447,376.96952h22.45941s7.09247,7.09244,10.63867,23.64151,7.09247,81.5632,7.09247,81.5632L829.93088,541.278H812.19974l-2.36413-76.8349L798.01487,414.796Z" transform="matrix(1, 0, 0, 1, -226.436798, -278.544037)" fill="#3f3d56"/>
  <path d="M961.78346,776.19125h-381a1,1,0,0,1,0-2h381a1,1,0,0,1,0,2Z" transform="matrix(1, 0, 0, 1, -226.436798, -278.544037)" fill="#cbcbcb"/>
</svg>