<?xml version="1.0" encoding="iso-8859-1"?>
<!-- Generator: Adobe Illustrator 19.0.0, SVG Export Plug-In . SVG Version: 6.00 Build 0)  -->
<svg version="1.1" id="Capa_1" xmlns="http://www.w3.org/2000/svg" xmlns:xlink="http://www.w3.org/1999/xlink" x="0px" y="0px"
	 viewBox="0 0 489.27 489.27" style="enable-background:new 0 0 489.27 489.27;" xml:space="preserve">
<g>
	<g>
		<path d="M429.135,5.512c-22.9-10.1-49.7-5.8-76.9,9.7c-67.6,38.4-147.6,38.4-215.2,0c-27.2-15.5-54-19.8-76.9-9.7
			c-69.5,29.9-80.4,176.7-24.1,327.4c17.9,48.1,39.7,97.8,63,141.7c12,22.9,44.3,17.9,49.7-8.2c15.9-72.6,52.8-123.5,95.9-123.5
			c41.9,0,78.5,48.5,94.8,118.1c5.8,24.9,36.5,29.9,48.9,8.2c24.9-42.7,47.4-90.1,64.9-136.7
			C509.535,181.812,498.635,35.412,429.135,5.512z"/>
	</g>
</g>
<g>
</g>
<g>
</g>
<g>
</g>
<g>
</g>
<g>
</g>
<g>
</g>
<g>
</g>
<g>
</g>
<g>
</g>
<g>
</g>
<g>
</g>
<g>
</g>
<g>
</g>
<g>
</g>
<g>
</g>
</svg>
