<?xml version="1.0" encoding="utf-8"?>
<svg viewBox="209.657 -71.538 195.205 301.536" xmlns="http://www.w3.org/2000/svg">
  <g id="g10" transform="matrix(1.333333, 0, 0, -1.333333, -202.107162, 589.080383)">
    <g id="g12" transform="scale(0.1)">
      <path d="M 7500,0 H 0 V 5000 H 7500 V 0" style="fill-opacity: 1; fill-rule: nonzero; stroke: none; fill: rgba(255, 255, 255, 0);" id="path14"/>
      <path d="m 1863.6,504.449 c 0,-46.937 -192.52,-85 -430,-85 -237.48,0 -430,38.063 -430,85 0,46.942 192.52,85 430,85 237.48,0 430,-38.058 430,-85" style="fill:#e5e5e0;fill-opacity:1;fill-rule:nonzero;stroke:none" id="path16"/>
      <path d="m 1464.32,2010.82 c 0,0 -71.76,71.75 -105.74,149.17 -33.99,77.42 -75.53,200.15 -75.53,200.15 0,0 194.49,-26.43 232.25,-33.98 37.77,-7.56 58.54,-11.34 58.54,-11.34 l 69.87,20.77 c 0,0 -100.08,17 -164.28,43.44 -64.2,26.44 -249.25,90.63 -279.47,90.63 -30.21,0 -15.11,-47.2 -15.11,-73.64 0,-26.43 71.76,-234.15 96.31,-296.46 24.54,-62.31 52.87,-164.28 52.87,-164.28 0,0 -5.66,-79.31 -17,-152.95 -11.33,-73.64 0,-239.8 1.89,-245.47 1.89,-5.67 -58.53,-128.41 -15.11,-264.36 43.44,-135.96 179.39,-324.781 179.39,-324.781 l 9.44,-17 c 0,0 -54.76,-43.43 -66.09,-90.637 -11.32,-47.203 -86.86,-151.062 -92.52,-166.172 -5.66,-15.09 -50.98,-30.199 -49.1,-50.969 1.89,-20.781 26.44,-86.871 47.21,-126.519 20.77,-39.66 41.54,-52.871 45.32,-35.883 3.78,17 -1.89,105.75 -1.89,135.961 0,30.219 -1.89,49.09 11.33,66.082 13.22,17.008 124.62,128.41 124.62,128.41 0,0 -1.88,-126.512 -1.88,-166.172 0,-39.648 -3.78,-122.73 18.88,-152.949 22.66,-30.211 50.98,-5.66 52.87,24.551 1.89,30.207 -22.66,113.289 -22.66,130.297 0,16.992 28.33,92.523 52.87,173.722 24.55,81.188 22.66,209.589 30.22,241.689 7.55,32.11 60.42,122.74 52.87,245.47 -7.55,122.74 -64.2,245.48 -77.42,266.25 -13.22,20.78 -39.65,62.32 -39.65,62.32 l -1.89,62.3 c 0,0 50.98,30.22 75.53,66.1 24.55,35.88 54.76,145.4 35.88,164.27 -18.89,18.89 -73.65,39.66 -86.87,49.11 -13.21,9.43 -135.95,52.87 -135.95,52.87" style="fill:#f89d87;fill-opacity:1;fill-rule:nonzero;stroke:none" id="path18"/>
      <path d="m 1600.27,1957.95 c -13.21,9.43 -135.95,52.87 -135.95,52.87 0,0 -71.76,71.75 -105.74,149.17 -33.99,77.42 -75.53,200.15 -75.53,200.15 0,0 194.49,-26.43 232.25,-33.98 37.77,-7.56 58.54,-11.34 58.54,-11.34 l 69.87,20.77 c 0,0 -100.08,17 -164.28,43.44 -64.2,26.44 -249.26,90.63 -279.47,90.63 -30.21,0 -15.11,-47.2 -15.11,-73.64 0,-26.43 71.76,-234.15 96.31,-296.46 24.54,-62.31 52.87,-164.28 52.87,-164.28 0,0 -5.66,-79.31 -17,-152.95 -4.64,-30.17 -5.47,-75.89 -4.71,-119.73 26.3,-26.8 71.51,-49.38 125.56,-61.54 75.53,-17 107.76,14.5 139.38,26.93 l -1.53,50.48 c 0,0 50.98,30.22 75.53,66.1 24.55,35.88 54.76,145.4 35.88,164.27 -18.89,18.89 -73.65,39.66 -86.87,49.11" style="fill:#56afe5;fill-opacity:1;fill-rule:nonzero;stroke:none" id="path20"/>
      <path d="m 1199.96,2469.66 c -1.46,0 -2.73,-0.2 -3.99,-0.42 13.87,-27.73 46.27,-85.18 87.08,-109.1 0,0 194.49,-26.43 232.25,-33.98 37.77,-7.56 58.54,-11.34 58.54,-11.34 l 69.87,20.77 c 0,0 -100.08,17 -164.28,43.44 -64.2,26.44 -249.26,90.63 -279.47,90.63" style="fill:#f89d87;fill-opacity:1;fill-rule:nonzero;stroke:none" id="path22"/>
      <path d="m 1496.42,2167.54 c 0,0 -26.43,45.32 -3.78,103.85 22.66,58.54 115.19,88.75 175.61,84.97 60.43,-3.77 120.85,-137.84 115.19,-181.27 -5.67,-43.42 -43.43,-56.65 -24.55,-86.86 18.88,-30.21 100.08,-62.31 96.3,-132.18 -3.77,-69.86 -60.42,-105.74 -33.99,-135.96 26.44,-30.2 73.65,-81.19 47.21,-132.17 -26.44,-50.98 -100.08,-64.2 -84.97,-96.3 15.11,-32.1 43.43,-54.76 32.1,-81.19 -11.33,-26.45 -58.54,-39.66 -58.54,-39.66 0,0 39.66,35.88 11.33,49.09 -28.32,13.22 -45.32,-5.66 -86.86,28.33 -41.54,33.98 -75.53,84.97 -60.42,135.96 15.1,50.97 41.54,94.4 9.44,139.72 -32.1,45.33 -86.86,69.87 -90.64,128.4 -3.77,58.55 7.55,86.87 9.44,122.75 1.89,35.88 -52.87,92.52 -52.87,92.52" style="fill:#3c3565;fill-opacity:1;fill-rule:nonzero;stroke:none" id="path24"/>
      <path d="m 1679.58,1916.4 c 0,0 37.77,-13.22 47.21,-50.98 9.44,-37.77 3.78,-117.07 -20.77,-169.94 -24.55,-52.88 -43.43,-100.08 -69.87,-105.75 -26.43,-5.67 -28.32,45.32 -22.66,81.19 5.67,35.88 26.44,96.3 26.44,151.07 0,54.75 -22.66,118.95 -1.89,118.95 20.77,0 41.54,-24.54 41.54,-24.54" style="fill:#4d99c6;fill-opacity:1;fill-rule:nonzero;stroke:none" id="path26"/>
      <path d="m 1524.74,2135.44 c 0,0 3.78,-58.54 1.89,-86.86 -1.89,-28.33 -30.21,-39.66 -49.09,-30.21 -18.89,9.44 -37.77,22.65 -37.77,22.65 0,0 45.32,-96.3 84.97,-109.51 39.66,-13.22 98.2,9.43 98.2,9.43 0,0 -33.99,28.33 -30.22,60.43 3.78,32.1 17,71.76 17,71.76 l -84.98,62.31" style="fill:#f47070;fill-opacity:1;fill-rule:nonzero;stroke:none" id="path28"/>
      <path d="m 1585.17,2224.19 c 0,0 3.78,26.43 -18.88,24.55 -22.66,-1.89 -43.43,-75.53 -43.43,-75.53 0,0 -30.22,39.65 -33.99,0 -3.78,-39.66 18.88,-52.88 18.88,-52.88 h 16.99 c 0,0 17,-67.97 49.1,-81.19 32.1,-13.22 64.2,47.2 83.09,83.08 18.88,35.88 1.88,90.64 -13.22,103.86 -15.11,13.21 -49.1,15.1 -58.54,-1.89" style="fill:#f89d87;fill-opacity:1;fill-rule:nonzero;stroke:none" id="path30"/>
      <path d="m 1646.54,1825.76 h -45.32 c -13.04,0 -23.6,10.57 -23.6,23.6 v 124.63 c 0,13.04 10.56,23.6 23.6,23.6 h 45.32 c 13.03,0 23.6,-10.56 23.6,-23.6 v -124.63 c 0,-13.03 -10.57,-23.6 -23.6,-23.6" style="fill:#f68626;fill-opacity:1;fill-rule:nonzero;stroke:none" id="path32"/>
      <path d="m 1743.79,1820.09 c 0,0 -33.99,60.43 -58.54,75.54 -24.55,15.11 -77.42,35.88 -77.42,26.44 0,-9.45 58.53,-45.33 58.53,-45.33 0,0 -41.54,1.9 -52.87,0 -11.33,-1.88 -26.43,-15.1 -20.77,-15.1 5.67,0 28.33,-9.45 28.33,-9.45 0,0 -41.55,7.56 -26.44,-7.54 15.11,-15.11 30.21,-18.89 30.21,-18.89 0,0 -39.65,9.44 -20.77,-1.89 18.89,-11.32 73.65,-30.21 90.64,-33.98 17,-3.78 15.11,-13.22 15.11,-13.22 0,0 -71.76,-88.75 -83.09,-128.4 -11.33,-39.66 3.78,-71.76 30.22,-69.87 26.43,1.89 66.08,90.64 79.3,134.07 13.22,43.43 15.11,92.53 7.56,107.62" style="fill:#f89d87;fill-opacity:1;fill-rule:nonzero;stroke:none" id="path34"/>
      <path d="m 1617.27,1553.85 c -10.44,16.41 -29.09,45.71 -36.47,57.32 -27.37,-16.55 -91.33,-51.14 -154.25,-55.43 -46.39,-3.16 -85.69,13.69 -111.37,29.2 1.51,-27.24 3.13,-46.23 3.74,-48.09 1.89,-5.66 -58.53,-128.4 -15.11,-264.35 43.44,-135.96 179.39,-324.781 179.39,-324.781 l 9.44,-17 c 0,0 -54.76,-43.43 -66.09,-90.637 -9.84,-41.043 -68.21,-124.883 -87.01,-156 0.67,-1.5 1.32,-2.98 2.04,-4.492 17,-35.879 37.77,-30.219 37.77,-30.219 l 0.26,0.078 c 1.67,4.59 4.01,8.93 7.29,13.133 13.22,17.008 124.62,128.41 124.62,128.41 0,0 -1.51,-101.844 -1.83,-151.402 4.09,-4.399 8.5,-8.258 13.17,-10.988 22.65,-13.223 35.87,-1.883 35.87,-1.883 0,16.992 28.33,92.523 52.88,173.722 24.54,81.188 22.65,209.589 30.21,241.689 7.55,32.11 60.42,122.74 52.87,245.47 -7.55,122.74 -64.2,245.48 -77.42,266.25" style="fill:#f0354e;fill-opacity:1;fill-rule:nonzero;stroke:none" id="path36"/>
      <path d="m 1377.46,460.539 c 3.78,17 -1.89,105.75 -1.89,135.961 -30.21,5.66 -33.99,-3.781 -33.99,-3.781 l -20.9,67.543 c -15.16,-10.961 -37.07,-22.742 -35.75,-37.321 1.89,-20.781 26.44,-86.871 47.21,-126.519 20.77,-39.66 41.54,-52.871 45.32,-35.883" style="fill:#3c3565;fill-opacity:1;fill-rule:nonzero;stroke:none" id="path38"/>
      <path d="m 1558.73,543.629 -30.21,-3.777 -19.09,55.679 c -0.22,-42.441 1.1,-99.672 19.09,-123.66 22.66,-30.211 50.98,-5.66 52.87,24.551 1.15,18.308 -7.41,56.027 -14.34,86.699 l -8.32,-39.492" style="fill:#3c3565;fill-opacity:1;fill-rule:nonzero;stroke:none" id="path40"/>
      <path d="m 1437,1461.29 67.68,-74.95 70.1,99.12" style="fill:none;stroke:#3c3565;stroke-width:5;stroke-linecap:butt;stroke-linejoin:miter;stroke-miterlimit:10;stroke-dasharray:none;stroke-opacity:1" id="path42"/>
      <path d="m 1504.68,1386.34 c 0,0 101.53,-360.17 101.53,-435.11 0,-74.929 -85.42,-141.601 -94.69,-160.238" style="fill:none;stroke:#3c3565;stroke-width:5;stroke-linecap:butt;stroke-linejoin:miter;stroke-miterlimit:10;stroke-dasharray:none;stroke-opacity:1" id="path44"/>
      <path d="m 1863.6,2754.45 c 0,-46.94 -192.52,-85 -430,-85 -237.48,0 -430,38.06 -430,85 0,46.94 192.52,85 430,85 237.48,0 430,-38.06 430,-85" style="fill:#e5e5e0;fill-opacity:1;fill-rule:nonzero;stroke:none" id="path46"/>
      <path d="m 1087.61,3946.76 120.03,-15 2.5,-360.09 -185.05,27.51 62.52,347.58" style="fill:#bf584a;fill-opacity:1;fill-rule:nonzero;stroke:none" id="path48"/>
      <path d="m 1210.14,3571.67 77.52,90.03 -27.51,292.56 -52.51,-22.5 2.5,-360.09" style="fill:#b2483f;fill-opacity:1;fill-rule:nonzero;stroke:none" id="path50"/>
      <path d="m 1242.32,3977.62 c 0,0 -10,-110.03 5,-227.55 15.01,-117.53 85.02,-277.57 90.02,-330.09 5.01,-52.51 -55.01,-155.04 -55.01,-240.06 0,-85.02 57.52,-237.55 50.01,-292.56 -7.5,-55.02 -37.51,-107.53 -30,-130.04 7.5,-22.5 52.51,0 67.51,37.51 15,37.51 15,75.02 15,120.03 0,45.01 40.01,232.55 55.01,335.08 15.01,102.53 0,207.55 0,277.57 0,70.02 -5,190.05 -5,190.05 h 25.01 c 0,0 17.5,-167.54 17.5,-290.08 0,-122.53 -20,-247.56 -22.5,-345.08 -2.5,-97.53 -17.51,-205.05 -7.5,-232.55 10,-27.51 90.02,-105.03 105.02,-70.02 15.01,35.01 -50.01,77.52 -50.01,115.03 0,37.51 62.52,147.53 82.52,257.56 20.01,110.02 2.5,227.55 5,272.56 2.5,45.01 47.51,165.05 60.02,275.07 12.5,110.02 -2.5,210.05 -2.5,210.05 0,0 -292.57,2.5 -405.1,67.52" style="fill:#f0354e;fill-opacity:1;fill-rule:nonzero;stroke:none" id="path52"/>
      <path d="m 1242.32,3977.62 c 0,0 -10,-110.03 5,-227.55 15.01,-117.53 85.02,-277.57 90.02,-330.09 5.01,-52.51 -55.01,-155.04 -55.01,-240.06 0,-43.37 14.95,-104.27 28.62,-160.87 12.68,-3.36 27.43,-6.17 44.23,-7.51 18.08,-1.45 32.08,-0.56 43,1.39 13.05,75.04 32.28,172.73 41.68,237.01 15.01,102.53 0,207.55 0,277.57 0,70.02 -5,190.05 -5,190.05 h 25.01 c 0,0 17.5,-167.54 17.5,-290.08 0,-122.53 -20,-247.56 -22.5,-345.08 -0.54,-21.12 -1.68,-42.69 -3.01,-63.83 17.75,-7.87 47.43,-16.86 87.18,-14.69 17.4,44.41 36.39,96.42 45.86,148.54 20.01,110.02 2.5,227.55 5,272.56 2.5,45.02 47.51,165.05 60.02,275.07 12.5,110.03 -2.5,210.05 -2.5,210.05 0,0 -292.57,2.5 -405.1,67.52" style="fill:#f0354e;fill-opacity:1;fill-rule:nonzero;stroke:none" id="path54"/>
      <path d="m 1434.86,4617.77 c 0,0 12.51,-85.02 5,-145.04 -7.5,-60 -32.5,-122.52 -82.51,-237.55 -50.01,-115.03 -115.03,-257.56 -50.01,-320.08 65.01,-62.52 185.04,-65.02 240.05,-47.51 55.02,17.5 77.52,70.02 90.02,190.05 12.51,120.03 -55.01,312.57 -55.01,387.59 0,75.02 2.5,117.53 -5,157.54 -7.5,40.01 -112.53,70.02 -142.54,15" style="fill:#dcbba5;fill-opacity:1;fill-rule:nonzero;stroke:none" id="path56"/>
      <path d="m 1387.19,4304.97 c 39.51,-14.07 108.7,-33.93 170.2,-27.28 20.26,2.19 37.35,7.72 51.98,14.94 -13.69,62.93 -26.97,119.33 -26.97,152.6 0,75.02 2.5,117.53 -5,157.54 -7.5,40.01 -112.53,70.02 -142.54,15 0,0 12.51,-85.02 5,-145.04 -5.82,-46.57 -22.25,-94.78 -52.67,-167.76" style="fill:#f47070;fill-opacity:1;fill-rule:nonzero;stroke:none" id="path58"/>
      <path d="m 1272.33,4850.33 -85.02,-197.55 55.01,-40.01 92.52,220.05 -62.51,17.51" style="fill:#56afe5;fill-opacity:1;fill-rule:nonzero;stroke:none" id="path60"/>
      <path d="m 1064.78,4640.28 c 0,0 15,57.52 25,62.52 10,5 102.53,75.01 102.53,75.01 l 92.52,-7.5 v -17.51 l -65.01,5.01 57.51,-35.01 -20.01,-35.01 -62.51,12.51 c 0,0 -32.51,-27.51 -42.51,-30.01 -10,-2.5 -30.01,-10 -30.01,-10 l -2.5,-47.52 -55.01,27.51" style="fill:#f89d87;fill-opacity:1;fill-rule:nonzero;stroke:none" id="path62"/>
      <path d="m 1447.37,4427.73 c 0,0 -25.01,-295.08 -32.51,-392.6 -7.5,-97.52 -35.01,-212.55 -35.01,-212.55 0,0 -82.52,27.5 -125.03,55.01 -42.51,27.51 -97.52,85.02 -97.52,85.02 0,0 75.02,165.04 95.02,240.06 20.01,75.02 30.01,130.03 30.01,130.03 0,0 -70.02,-22.5 -172.54,-37.5 -102.53,-15.01 -157.544,-2.51 -157.544,15 0,17.5 95.024,340.08 95.024,340.08 l 87.52,-15 -35.01,-220.05 c 0,0 175.05,37.5 192.55,67.51 17.51,30.01 75.02,7.5 105.02,2.5 30.01,-5 60.02,5 50.02,-57.51" style="fill:#3c3565;fill-opacity:1;fill-rule:nonzero;stroke:none" id="path64"/>
      <path d="m 1370.18,4489.39 -220.05,-557.63 h 40.01 l 225.05,552.63 -45.01,5" style="fill:#bf584a;fill-opacity:1;fill-rule:nonzero;stroke:none" id="path66"/>
      <path d="m 1414.66,4032.72 c 0.07,0.8 0.14,1.61 0.2,2.41 7.5,97.53 32.51,392.6 32.51,392.6 10,62.51 -20.01,52.51 -50.02,57.51 l -72.51,-200.05 89.82,-252.47" style="fill:#656590;fill-opacity:1;fill-rule:nonzero;stroke:none" id="path68"/>
      <path d="m 1894.98,3787.57 c 0,0 107.53,-65.01 115.03,-60.01 7.5,5 57.51,37.51 57.51,37.51 l 12.5,-12.5 25.01,30 c 0,0 -30.01,47.51 -40.01,47.51 -10,0 -112.53,-12.5 -112.53,-12.5 l -30.01,7.5 -27.5,-37.51" style="fill:#f89d87;fill-opacity:1;fill-rule:nonzero;stroke:none" id="path70"/>
      <path d="m 2067.52,3765.07 -25,10 -20.01,-12.5" style="fill:none;stroke:#3c3565;stroke-width:5;stroke-linecap:butt;stroke-linejoin:miter;stroke-miterlimit:10;stroke-dasharray:none;stroke-opacity:1" id="path72"/>
      <path d="m 1567.4,4470.23 c 0,0 -50.02,-207.54 -60.02,-315.07 -10,-107.53 -30.01,-335.08 -30.01,-335.08 l 185.05,45.01 v 257.56 c 0,0 67.52,-165.04 97.52,-212.55 30.01,-47.51 122.54,-160.03 122.54,-160.03 l 70.01,67.51 c 0,0 -140.03,197.55 -175.04,295.07 -35.01,97.52 -52.51,192.55 -72.52,252.56 -20,60.02 -72.52,117.53 -137.53,105.02" style="fill:#3c3565;fill-opacity:1;fill-rule:nonzero;stroke:none" id="path74"/>
      <path d="m 1597.66,4470.95 c -9.72,1.33 -19.81,1.3 -30.26,-0.72 0,0 -50.02,-207.54 -60.02,-315.07 -3.11,-33.48 -7.2,-78.61 -11.34,-124.88 28.84,42.33 120.46,178.34 128.87,209.9 9.76,36.61 -23.33,204.12 -27.25,230.77" style="fill:#656590;fill-opacity:1;fill-rule:nonzero;stroke:none" id="path76"/>
      <path d="m 1524.89,4865.34 c 0,0 -152.54,-35.02 -157.54,-97.53 -5,-62.51 30,-100.02 30,-135.04 0,-35 -60.01,-160.04 -42.5,-215.04 17.5,-55.02 90.02,-67.52 105.02,-17.51 15,50.01 -10,147.54 -15,187.55 -5.01,40 7.5,97.52 47.51,102.52 40.01,5 52.51,-35.01 65.01,-77.52 12.51,-42.51 2.5,-145.04 5.01,-220.05 2.5,-75.02 52.51,-117.53 77.52,-100.03 25,17.51 35,52.52 50.01,40.01 15,-12.5 27.5,-35 27.5,-35 0,0 17.51,37.51 5.01,87.52 -12.51,50.01 -60.02,47.51 -67.52,95.02 -7.5,47.51 35.01,197.55 10,287.57 -25,90.03 -140.03,97.53 -140.03,97.53" style="fill:#f68626;fill-opacity:1;fill-rule:nonzero;stroke:none" id="path78"/>
      <path d="m 1489.88,4790.31 c 0,0 -60.02,-72.51 -65.02,-112.52 -5,-40.01 5,-140.03 55.02,-152.54 50.01,-12.5 87.52,50.02 87.52,67.52 0,17.5 12.5,70.02 12.5,70.02 0,0 -82.52,87.51 -90.02,127.52" style="fill:#f89d87;fill-opacity:1;fill-rule:nonzero;stroke:none" id="path80"/>
      <path d="m 1350.18,2851.5 c -11.73,1.95 -18.45,6.96 -22.34,12.33 -10.9,-45.98 -31.93,-87.25 -25.5,-106.51 7.5,-22.5 52.51,0 67.51,37.51 9.08,22.69 12.62,45.41 14.04,69.75 -8.99,-8.42 -20.64,-15.26 -33.71,-13.08" style="fill:#3c3565;fill-opacity:1;fill-rule:nonzero;stroke:none" id="path82"/>
      <path d="m 1482.71,2861.5 c -17.9,0 -30.55,8.5 -38.66,16.8 0.2,-12.58 1.15,-22.49 3.32,-28.45 10,-27.51 90.02,-105.03 105.02,-70.02 11.45,26.71 -23.63,57.79 -40.93,87.7 -7.95,-3.48 -17.58,-6.03 -28.75,-6.03" style="fill:#3c3565;fill-opacity:1;fill-rule:nonzero;stroke:none" id="path84"/>
      <path d="m 4293.6,2754.45 c 0,-46.94 -192.52,-85 -430,-85 -237.48,0 -430,38.06 -430,85 0,46.94 192.52,85 430,85 237.48,0 430,-38.06 430,-85" style="fill:#e5e5e0;fill-opacity:1;fill-rule:nonzero;stroke:none" id="path86"/>
      <path d="m 3765.52,2911.08 c 0,0 -24.2,-81.67 -12.1,-130.07 12.1,-48.4 39.33,-39.32 57.47,3.03 18.16,42.34 21.18,133.09 21.18,133.09 l -66.55,-6.05" style="fill:#dcbba5;fill-opacity:1;fill-rule:nonzero;stroke:none" id="path88"/>
      <path d="m 3928.86,2932.25 c 0,0 18.15,-69.57 30.26,-84.69 12.09,-15.13 30.24,-48.4 -9.08,-42.35 -39.32,6.05 -105.87,60.49 -117.97,111.92 -12.1,51.42 66.55,30.24 96.79,15.12" style="fill:#dcbba5;fill-opacity:1;fill-rule:nonzero;stroke:none" id="path90"/>
      <path d="m 3859.29,3074.42 -27.22,583.79 c 0,0 96.79,-232.91 102.85,-290.38 6.04,-57.47 -75.63,-293.41 -75.63,-293.41 z m 169.4,614.04 c 0,12.1 -63.53,735.03 -63.53,735.03 l -260.13,54.45 c 0,0 -57.48,-574.72 -57.48,-592.87 0,-18.14 12.1,-329.7 30.25,-462.8 18.15,-133.09 54.45,-535.39 54.45,-535.39 h 139.14 l -6.05,54.45 75.62,-48.4 c 0,0 111.93,305.51 127.04,387.18 15.13,81.67 -39.31,396.25 -39.31,408.35" style="fill:#3c3565;fill-opacity:1;fill-rule:nonzero;stroke:none" id="path92"/>
      <path d="m 4015.13,3850.53 c -18.65,216.5 -49.97,572.96 -49.97,572.96 l -260.13,54.45 c 0,0 -45.09,-450.89 -55.39,-566.49 l 365.49,-60.92" style="fill:#dcbba5;fill-opacity:1;fill-rule:nonzero;stroke:none" id="path94"/>
      <path d="m 3880.47,4486.26 c 0,0 43.1,-122.51 52.17,-206.44 9.08,-83.94 6.81,-551.28 6.81,-551.28 l 129.32,43.1 -49.92,521.79 65.79,-176.95 56.72,20.41 c 0,0 -29.49,161.07 -52.18,215.52 -22.69,54.45 -72.59,88.48 -93.01,95.28 -20.42,6.81 -115.7,38.57 -115.7,38.57" style="fill:#56afe5;fill-opacity:1;fill-rule:nonzero;stroke:none" id="path96"/>
      <path d="m 3878.2,4531.63 c 0,0 34.02,2.27 58.98,-31.76 24.96,-34.03 34.03,-104.35 34.03,-104.35 l -45.37,31.76 -24.95,-34.03 c 0,0 -28.64,15.12 -36.3,61.25 -7.67,46.13 13.61,77.13 13.61,77.13" style="fill:#8fc9ef;fill-opacity:1;fill-rule:nonzero;stroke:none" id="path98"/>
      <path d="m 3898.62,4547.51 c 0,0 -24.96,-61.25 -13.61,-90.74 11.33,-29.49 34.02,-54.45 11.33,-74.87 -22.68,-20.42 -108.88,-11.34 -127.04,31.76 -18.15,43.11 31.76,120.24 31.76,120.24 l 97.56,13.61" style="fill:#f47070;fill-opacity:1;fill-rule:nonzero;stroke:none" id="path100"/>
      <path d="m 3807.87,4513.48 -111.16,-685.12 -163.34,40.84 90.74,496.82 -276.77,36.3 70.33,102.09 c 0,0 88.47,-15.88 133.84,-2.27 45.38,13.61 54.45,31.76 74.87,31.76 20.42,0 131.58,-18.15 131.58,-18.15 l 49.91,-2.27" style="fill:#56afe5;fill-opacity:1;fill-rule:nonzero;stroke:none" id="path102"/>
      <path d="m 3807.87,4513.48 -63.52,-97.55 -15.88,95.28 54.45,40.84 24.95,-38.57" style="fill:#8fc9ef;fill-opacity:1;fill-rule:nonzero;stroke:none" id="path104"/>
      <path d="m 3830.51,4739.84 c 0,0 -24.95,19.08 -24.95,57.24 0,38.15 48.43,42.56 73.38,32.28 24.94,-10.27 36.69,-44.02 36.69,-44.02 0,0 36.68,27.88 57.23,7.33 20.54,-20.54 10.27,-57.23 10.27,-57.23 0,0 38.16,-33.75 33.76,-66.04 -4.4,-32.28 -60.17,-82.18 -60.17,-82.18 0,0 -42.56,-16.14 -48.43,4.41 -5.87,20.53 17.61,64.56 0,82.17 -17.61,17.61 -77.78,66.04 -77.78,66.04" style="fill:#bf584a;fill-opacity:1;fill-rule:nonzero;stroke:none" id="path106"/>
      <path d="m 3830.51,4739.84 c 0,0 -67.51,-130.61 -66.04,-176.1 1.46,-45.49 36.69,-79.25 92.45,-63.11 55.77,16.14 77.78,55.77 77.78,55.77 0,0 25.37,15.73 30.82,29.35 2.93,7.34 5.87,20.55 -2.94,23.48 -8.79,2.93 -32.28,1.47 -32.28,1.47 0,0 22.01,20.54 10.27,36.69 -11.74,16.14 -17.6,7.33 -11.74,16.14 5.87,8.81 11.74,27.88 11.74,27.88 0,0 -86.58,30.82 -110.06,48.43" style="fill:#f89d87;fill-opacity:1;fill-rule:nonzero;stroke:none" id="path108"/>
      <path d="m 3401.79,4536.17 c 0,0 72.59,-2.27 72.59,-65.79 0,-63.52 -58.98,-90.74 -97.55,-90.74 -38.57,0 -83.94,36.29 -72.6,88.47 11.35,52.18 68.07,74.87 97.56,68.06" style="fill:#8fc9ef;fill-opacity:1;fill-rule:nonzero;stroke:none" id="path110"/>
      <path d="m 3519.76,4915.03 -45.38,-186.03 63.52,-18.14 45.38,224.59 -63.52,-20.42" style="fill:#3c3565;fill-opacity:1;fill-rule:nonzero;stroke:none" id="path112"/>
      <path d="m 3565.13,4846.97 c 0,0 -72.6,-4.54 -93.01,-18.15 -20.42,-13.61 -68.07,-63.52 -72.6,-79.4 -4.54,-15.88 -90.75,-254.08 -90.75,-290.38 0,-36.3 36.3,-63.52 70.33,-45.38 34.03,18.15 36.3,68.07 43.1,117.97 6.81,49.92 22.69,179.23 22.69,179.23 l 61.25,24.95 29.5,-9.08 20.41,56.72 -27.22,18.15 29.49,11.34 c 0,0 -4.53,-15.88 9.08,-15.88 13.61,0 -2.27,49.91 -2.27,49.91" style="fill:#f89d87;fill-opacity:1;fill-rule:nonzero;stroke:none" id="path114"/>
      <path d="m 4111.87,4186.8 c 0,0 36.29,-11.34 45.37,-36.3 9.07,-24.95 24.95,-65.79 -6.8,-81.66 -31.77,-15.89 -93.02,-34.04 -115.71,2.26 -22.68,36.3 -4.54,72.6 9.07,83.94 13.62,11.34 68.07,31.76 68.07,31.76" style="fill:#8fc9ef;fill-opacity:1;fill-rule:nonzero;stroke:none" id="path116"/>
      <path d="m 4141.36,4136.89 c 0,0 -99.82,229.13 -115.7,251.82 -15.88,22.69 -45.37,47.64 -45.37,47.64 0,0 -4.54,20.42 -4.54,36.3 0,15.88 -18.15,27.22 -22.69,15.88 -4.54,-11.35 0,-56.72 0,-56.72 0,0 -58.98,11.35 -65.79,9.08 -6.8,-2.27 -11.34,-11.35 -4.53,-22.69 6.8,-11.34 20.41,-13.61 20.41,-13.61 0,0 2.28,-40.84 13.61,-56.71 11.35,-15.88 79.41,-18.16 79.41,-18.16 0,0 29.49,-151.99 36.3,-181.49 6.8,-29.49 22.68,-74.86 68.05,-63.52 45.37,11.34 40.84,52.18 40.84,52.18" style="fill:#f89d87;fill-opacity:1;fill-rule:nonzero;stroke:none" id="path118"/>
      <path d="m 4293.6,504.449 c 0,-46.937 -192.52,-85 -430,-85 -237.48,0 -430,38.063 -430,85 0,46.942 192.52,85 430,85 237.48,0 430,-38.058 430,-85" style="fill:#e5e5e0;fill-opacity:1;fill-rule:nonzero;stroke:none" id="path120"/>
      <path d="m 3930.11,2578.82 c 0,0 33.69,41.62 53.52,47.57 19.82,5.95 39.65,-3.97 63.43,-21.8 23.79,-17.85 49.56,-83.26 53.52,-111.01 3.97,-27.75 5.95,-27.75 -7.93,-35.68 -13.87,-7.93 -57.49,-23.78 -57.49,-23.78 0,0 -21.79,65.41 -41.62,85.23 -19.82,19.82 -63.43,59.47 -63.43,59.47" style="fill:#3c3565;fill-opacity:1;fill-rule:nonzero;stroke:none" id="path122"/>
      <path d="m 3809.2,2523.31 c 0,0 -13.88,29.74 45.58,55.51 59.47,25.77 116.95,5.94 166.52,-39.65 49.55,-45.59 53.51,-112.98 25.76,-152.63 -27.75,-39.65 -35.68,-61.45 -79.29,-47.57 -43.6,13.87 -63.43,124.87 -87.22,140.73 -23.79,15.86 -71.35,35.68 -71.35,35.68 v 7.93" style="fill:#5c5b88;fill-opacity:1;fill-rule:nonzero;stroke:none" id="path124"/>
      <path d="m 3861.55,643 c 0,0 -124.56,-72.648 -83.04,-93.41 41.52,-20.758 166.08,59.672 179.04,75.25 12.98,15.57 -70.05,44.109 -96,18.16" style="fill:#dcbba5;fill-opacity:1;fill-rule:nonzero;stroke:none" id="path126"/>
      <path d="m 3957.55,624.84 c 3.3,3.949 0.4,8.73 -6.18,13.25 l -66.47,-39.211 -44.33,31.043 c -33.53,-21.91 -92.55,-65.09 -62.06,-80.332 41.52,-20.758 166.08,59.672 179.04,75.25" style="fill:#3c3565;fill-opacity:1;fill-rule:nonzero;stroke:none" id="path128"/>
      <path d="m 3957.55,580.719 c 0,0 -93.41,-72.66 -121.96,-98.598 -28.53,-25.949 0,-33.73 44.12,-25.949 44.11,7.777 96.01,36.328 108.99,64.867 12.98,28.551 20.76,57.09 20.76,57.09 l -51.91,2.59" style="fill:#dcbba5;fill-opacity:1;fill-rule:nonzero;stroke:none" id="path130"/>
      <path d="m 3952.37,518.441 -45.22,22.61 c -26.88,-21.391 -57.3,-45.969 -71.56,-58.93 -28.53,-25.949 0,-33.73 44.12,-25.949 44.11,7.777 96.01,36.328 108.99,64.867 3.74,8.231 7.04,16.449 9.85,24 l -46.18,-26.598" style="fill:#3c3565;fill-opacity:1;fill-rule:nonzero;stroke:none" id="path132"/>
      <path d="m 3947.17,754.59 c 0,0 -114.17,334.74 -119.36,352.91 -5.19,18.16 49.31,262.08 49.31,262.08 0,0 46.7,-179.05 59.68,-293.23 12.97,-114.178 10.37,-321.76 10.37,-321.76 z m 127.16,498.22 c 2.6,31.14 7.79,70.07 28.55,119.36 20.75,49.31 28.54,194.62 28.54,217.98 0,23.35 -2.6,33.73 -2.6,33.73 0,0 -207.59,20.77 -267.27,25.95 -59.69,5.2 -124.56,25.95 -127.15,-59.68 0,0 -46.71,-415.19 -41.52,-467.09 5.19,-51.89 163.47,-493.029 163.47,-493.029 l 72.66,-2.601 5.2,-57.078 c 0,0 25.94,-7.793 57.09,-7.793 31.13,0 36.32,25.953 36.32,25.953 0,0 77.85,295.82 83.04,389.238 5.19,93.42 -38.93,243.92 -36.33,275.06" style="fill:#3c3565;fill-opacity:1;fill-rule:nonzero;stroke:none" id="path134"/>
      <path d="m 4007.42,2210.12 c 0,0 -63.44,-9.91 -101.1,-11.89 -37.66,-1.98 -53.52,-15.86 -63.43,-27.75 -9.91,-11.9 -69.38,-317.15 -65.41,-400.41 3.96,-83.26 0,-216.06 0,-216.06 0,0 55.5,-17.84 91.18,-19.82 35.68,-1.99 134.79,25.77 134.79,25.77 0,0 23.79,580.79 23.79,612.5 0,31.72 -19.82,37.66 -19.82,37.66" style="fill:#dcbba5;fill-opacity:1;fill-rule:nonzero;stroke:none" id="path136"/>
      <path d="m 3947.95,2164.53 c 0,0 -17.84,-323.1 -23.78,-426.17 -5.95,-103.08 -29.74,-222.02 -29.74,-222.02 0,0 148.66,33.71 188.31,41.64 39.65,7.93 57.48,29.72 57.48,29.72 0,0 27.75,263.64 27.75,390.5 0,126.87 -13.87,222.01 -51.53,237.87 -37.66,15.86 -118.93,29.74 -118.93,29.74 0,0 -31.72,-25.77 -49.56,-81.28" style="fill:#f68626;fill-opacity:1;fill-rule:nonzero;stroke:none" id="path138"/>
      <path d="m 4056.97,2239.86 c 0,0 -21.81,-105.06 -13.88,-180.39 7.93,-75.32 55.51,-170.47 65.42,-180.38 9.91,-9.91 13.88,-9.91 17.84,19.82 3.97,29.74 -1.98,313.2 -1.98,313.2 0,0 -35.68,31.72 -67.4,27.75" style="fill:#f0354e;fill-opacity:1;fill-rule:nonzero;stroke:none" id="path140"/>
      <path d="m 3888.48,2212.11 c 0,0 -51.53,-103.08 -59.46,-198.23 -7.93,-95.14 -27.75,-513.39 -27.75,-513.39 l -130.83,39.64 c 0,0 65.41,283.46 65.41,340.94 0,57.49 0,69.39 0,69.39 0,0 -87.22,-59.48 -138.75,-89.2 -51.54,-29.74 -83.26,-23.79 -83.26,7.92 0,31.72 37.67,83.26 87.22,124.88 49.56,41.63 114.97,111.01 124.88,130.83 9.91,19.82 9.91,43.6 31.72,53.52 21.8,9.91 130.82,33.7 130.82,33.7" style="fill:#f68626;fill-opacity:1;fill-rule:nonzero;stroke:none" id="path142"/>
      <path d="m 3908.31,2261.66 -79.29,-37.66 9.9,-61.45 75.33,39.64 -5.94,59.47" style="fill:#f7a354;fill-opacity:1;fill-rule:nonzero;stroke:none" id="path144"/>
      <path d="m 3908.31,2321.13 c 0,0 -3.97,-69.38 -11.9,-107.04 -7.93,-37.67 13.88,-41.63 29.74,-41.63 15.85,0 45.58,33.7 47.57,69.38 1.98,35.68 -3.08,136.75 -3.08,136.75 l -62.33,-57.46" style="fill:#f47070;fill-opacity:1;fill-rule:nonzero;stroke:none" id="path146"/>
      <path d="m 3837.18,2469.45 c 0,0 -51.1,8.53 -48.27,42.6 2.84,34.07 51.12,70.98 136.3,51.11 85.19,-19.88 76.67,-96.54 76.67,-96.54 0,0 11.36,-8.53 2.83,-34.08 -8.51,-25.55 8.53,-51.11 -19.87,-70.99 -28.39,-19.87 -36.91,-2.83 -36.91,-2.83 l -28.39,102.21 -82.36,8.52" style="fill:#f68626;fill-opacity:1;fill-rule:nonzero;stroke:none" id="path148"/>
      <path d="m 3822.99,2486.49 c 0,0 -5.68,-150.5 17.04,-190.24 22.71,-39.76 99.38,17.03 110.74,34.07 11.36,17.03 19.87,48.27 19.87,48.27 0,0 22.72,0 22.72,22.72 0,22.71 -8.52,45.43 -19.88,42.58 -11.35,-2.83 -25.55,-17.03 -25.55,-17.03 0,0 5.68,45.43 -5.68,59.63 -11.36,14.2 -119.26,0 -119.26,0" style="fill:#f89d87;fill-opacity:1;fill-rule:nonzero;stroke:none" id="path150"/>
      <path d="m 3920.34,2428.17 -99.39,1.98 c 0,0 -19.55,-27.75 3.27,-45.59 22.81,-17.84 35.84,21.8 35.84,21.8 l 8.15,1.99 c 0,0 3.25,-39.65 30.96,-33.7 27.69,5.94 21.17,53.52 21.17,53.52" style="fill:#3c3565;fill-opacity:1;fill-rule:nonzero;stroke:none" id="path152"/>
      <path d="m 3920.34,2428.17 35.54,3.97" style="fill:#ffffff;fill-opacity:1;fill-rule:nonzero;stroke:none" id="path154"/>
      <path d="m 3920.34,2428.17 35.54,3.97" style="fill:none;stroke:#3c3565;stroke-width:5;stroke-linecap:butt;stroke-linejoin:miter;stroke-miterlimit:10;stroke-dasharray:none;stroke-opacity:1" id="path156"/>
      <path d="m 3989.58,2291.39 -67.4,-95.14 19.82,-81.27 75.33,124.88 -27.75,51.53" style="fill:#f7a354;fill-opacity:1;fill-rule:nonzero;stroke:none" id="path158"/>
      <path d="m 3583.22,1974.24 c 0,0 5.95,-81.27 -13.87,-111.01 -19.83,-29.73 -45.59,-35.67 -75.33,-11.89 -29.73,23.78 -45.59,31.71 -25.77,61.45 19.82,29.74 37.66,61.45 65.41,65.41 27.76,3.96 49.56,-3.96 49.56,-3.96" style="fill:#f7a354;fill-opacity:1;fill-rule:nonzero;stroke:none" id="path160"/>
      <path d="m 3547.54,1968.29 c 0,0 11.89,-45.59 -3.96,-65.41 -15.86,-19.83 -45.6,-35.69 -65.42,-15.86 -19.82,19.82 -33.7,51.54 -33.7,63.44 0,11.88 -79.28,188.31 -79.28,188.31 0,0 -1.99,45.58 27.75,33.69 29.73,-11.9 154.61,-204.17 154.61,-204.17" style="fill:#f89d87;fill-opacity:1;fill-rule:nonzero;stroke:none" id="path162"/>
      <path d="m 3422.66,2132.82 -27.75,49.55 c 0,0 -35.68,23.79 -45.59,27.75 -9.91,3.97 -23.79,1.99 -9.91,-13.87 13.87,-15.86 27.75,-23.79 27.75,-23.79 l 19.82,-27.75" style="fill:#f89d87;fill-opacity:1;fill-rule:nonzero;stroke:none" id="path164"/>
      <path d="m 3288.78,2233.13 c -2.19,0 -4.37,0.93 -5.92,2.73 l -236.79,276.45 c -2.8,3.26 -2.42,8.18 0.86,10.97 3.26,2.79 8.17,2.42 10.97,-0.85 l 236.79,-276.45 c 2.8,-3.26 2.42,-8.18 -0.85,-10.97 -1.47,-1.25 -3.27,-1.88 -5.06,-1.88" style="fill:#3c3565;fill-opacity:1;fill-rule:nonzero;stroke:none" id="path166"/>
      <path d="m 3466.28,2018.13 c -4.39,0 -8.75,1.85 -11.84,5.44 l -177.49,207.22 c -5.59,6.53 -4.83,16.37 1.7,21.96 6.53,5.59 16.35,4.83 21.95,-1.7 l 177.49,-207.22 c 5.6,-6.53 4.84,-16.35 -1.7,-21.95 -2.93,-2.52 -6.54,-3.75 -10.11,-3.75" style="fill:#3c3565;fill-opacity:1;fill-rule:nonzero;stroke:none" id="path168"/>
      <path d="m 3383.01,2172.46 c 0,0 -49.55,-39.64 -49.55,-45.59 0,-5.95 33.7,-49.56 47.57,-55.51 13.88,-5.94 57.49,21.81 57.49,29.74 0,7.93 -55.51,71.36 -55.51,71.36" style="fill:#f89d87;fill-opacity:1;fill-rule:nonzero;stroke:none" id="path170"/>
      <path d="m 2984.56,2629.43 155.2,-8.09 c 9.53,-0.49 16.85,-8.64 16.33,-18.18 l -4.03,-72.39 c -0.53,-9.57 -8.76,-16.87 -18.32,-16.26 l -152.51,9.73 c -9.21,0.6 -16.33,8.33 -16.15,17.55 l 1.33,70.74 c 0.19,9.74 8.41,17.4 18.15,16.9" style="fill:#dcbba5;fill-opacity:1;fill-rule:nonzero;stroke:none" id="path172"/>
      <path d="m 3032.16,2626.39 1.99,-107.04 h 33.69 l 1.99,105.06 -37.67,1.98" style="fill:#3c3565;fill-opacity:1;fill-rule:nonzero;stroke:none" id="path174"/>
      <path d="m 4195.73,2047.58 c 0,0 2.08,-0.52 5.68,-1.48 21.72,-5.81 98.52,-27.68 105.32,-48.08 7.93,-23.78 35.68,-218.04 7.93,-277.51 -27.75,-59.46 -45.59,-103.07 -59.47,-122.9 -13.88,-19.82 -59.46,-21.8 -103.07,-25.77 -43.61,-3.95 -81.27,25.77 -81.27,55.51 0,29.74 67.39,101.09 75.32,176.42 7.93,75.32 7.93,174.43 7.93,194.25 0,19.83 3.96,65.41 41.63,49.56" style="fill:#f0354e;fill-opacity:1;fill-rule:nonzero;stroke:none" id="path176"/>
      <path d="m 4086.71,1764.13 c 0,0 -91.19,-158.59 -103.08,-172.46 -11.9,-13.88 -53.52,-13.88 -59.46,-21.81 -5.95,-7.92 -19.83,-37.66 -19.83,-37.66 l 11.9,-7.93 11.89,7.93 c 0,0 -9.91,-25.77 -1.98,-33.7 7.93,-7.93 21.8,-1.98 21.8,-1.98 0,0 25.77,-9.91 45.59,-7.93 19.83,1.98 41.62,69.39 47.57,75.33 5.95,5.94 134.79,154.61 134.79,154.61 l -89.19,45.6" style="fill:#f89d87;fill-opacity:1;fill-rule:nonzero;stroke:none" id="path178"/>
      <path d="m 4124.37,2212.11 c 0,0 -23.79,-101.1 -19.82,-148.68 3.96,-47.56 11.89,-222 11.89,-222 l -29.73,-77.3 109.02,-69.39 c 0,0 35.67,73.34 45.58,130.83 9.92,57.48 -39.63,325.08 -59.46,354.82 -19.82,29.73 -57.48,31.72 -57.48,31.72" style="fill:#f68626;fill-opacity:1;fill-rule:nonzero;stroke:none" id="path180"/>
      <path d="m 4104.55,1819.63 c 0,0 49.55,0 85.23,-33.71 35.69,-33.69 53.52,-77.3 53.52,-77.3 l -45.59,-33.7 c 0,0 -47.58,41.63 -77.3,55.51 -29.74,13.87 -43.62,23.79 -43.62,23.79 0,0 27.76,59.46 27.76,65.41" style="fill:#f7a354;fill-opacity:1;fill-rule:nonzero;stroke:none" id="path182"/>
      <path d="m 4035.16,1982.16 -73.34,-3.96 9.91,-87.22 49.57,-23.79 35.67,37.67 -21.81,77.3" style="fill:#f7a354;fill-opacity:1;fill-rule:nonzero;stroke:none" id="path184"/>
      <path d="m 6623.6,504.449 c 0,-46.937 -192.52,-85 -430,-85 -237.48,0 -430,38.063 -430,85 0,46.942 192.52,85 430,85 237.48,0 430,-38.058 430,-85" style="fill:#e5e5e0;fill-opacity:1;fill-rule:nonzero;stroke:none" id="path186"/>
      <path d="m 5952.5,1222.02 c 0,0 12.56,-113.1 12.56,-138.22 0,-25.13 0,-92.152 8.38,-167.538 8.38,-75.391 25.13,-318.321 25.13,-330.891 0,-12.57 -29.32,-25.141 -29.32,-25.141 0,0 -113.08,-37.691 -62.82,-54.441 38.66,-12.891 102.1,6.441 140.77,17.961 14.11,4.199 22.67,18.422 19.65,32.84 -3.96,18.902 -7.68,47.492 -5.45,83.23 4.19,67.012 33.51,238.739 33.51,322.512 0,83.768 -12.57,150.778 -12.57,184.288 0,33.51 -8.37,62.83 -8.37,62.83 l -121.47,12.57" style="fill:#f89d87;fill-opacity:1;fill-rule:nonzero;stroke:none" id="path188"/>
      <path d="m 5940.21,533.66 c -10.16,0 0.05,10.102 14.62,21.371 -28.73,-10.929 -87.19,-36.312 -48.4,-49.242 38.66,-12.891 102.11,6.441 140.77,17.961 14.11,4.199 22.67,18.422 19.65,32.84 -0.53,2.512 -1.04,5.199 -1.55,8.051 -7.69,-4.469 -15.86,-8.879 -23.89,-12.582 -29.9,-13.797 -78.2,-18.399 -101.2,-18.399" style="fill:#f0354e;fill-opacity:1;fill-rule:nonzero;stroke:none" id="path190"/>
      <path d="m 6199.62,1146.62 c 0,0 125.66,-301.561 159.16,-385.331 33.51,-83.769 71.21,-184.297 79.58,-217.809 8.38,-33.5 136.02,-112.64 125.66,-71.199 -12.57,50.258 -71.1,64.11 -83.77,125.66 -29.32,142.399 -83.77,364.391 -104.72,414.649 -20.93,50.26 -33.5,167.54 -33.5,167.54 l -142.41,-33.51" style="fill:#f89d87;fill-opacity:1;fill-rule:nonzero;stroke:none" id="path192"/>
      <path d="m 6508.83,544.602 c 2.86,-11.543 20.43,-27.86 17.92,-36.243 -4.78,-15.929 -64.26,21.282 -90.49,42.84 0.82,-2.84 1.54,-5.457 2.1,-7.719 8.38,-33.5 136.02,-112.64 125.66,-71.199 -7.88,31.508 -33.81,48.711 -55.19,72.321" style="fill:#f0354e;fill-opacity:1;fill-rule:nonzero;stroke:none" id="path194"/>
      <path d="m 5958.55,1846.47 c 0,0 14.59,-77.79 0,-148.29 -14.58,-70.5 -55.91,-187.18 -94.8,-410.83 -10.14,-58.27 -9.73,-111.83 -9.73,-111.83 0,0 247.96,-41.31 393.82,-41.31 145.86,0 223.65,46.18 223.65,46.18 0,0 -53.49,323.32 -92.38,437.58 -38.9,114.24 -104.53,206.63 -104.53,206.63 l 34.03,291.71 -301.44,2.43 -60.77,2.43 12.15,-274.7" style="fill:#f0354e;fill-opacity:1;fill-rule:nonzero;stroke:none" id="path196"/>
      <path d="m 6470.34,1187.23 c -1.48,8.79 -4.36,25.74 -8.31,48.26 h -605.04 c -1.87,-20.51 -2.56,-37.6 -2.81,-48.26 h 616.16" style="fill:#3c3565;fill-opacity:1;fill-rule:nonzero;stroke:none" id="path198"/>
      <path d="m 5878.54,1367.08 c -3.05,-15.44 -6.11,-31.57 -9.16,-48.25 h 577.59 c -2.89,15.5 -5.96,31.7 -9.16,48.25 h -559.27" style="fill:#3c3565;fill-opacity:1;fill-rule:nonzero;stroke:none" id="path200"/>
      <path d="m 5928.62,1582.01 h 461.41 c -3.74,13.43 -7.39,25.57 -10.92,35.96 -1.41,4.15 -2.93,8.2 -4.41,12.29 h -433.1 c -3.96,-14.67 -8.31,-30.68 -12.98,-48.25" style="fill:#3c3565;fill-opacity:1;fill-rule:nonzero;stroke:none" id="path202"/>
      <path d="m 5956.48,1893.44 2.07,-46.97 c 0,0 0.1,-0.51 0.24,-1.28 h 318.19 l 5.63,48.25 h -326.13" style="fill:#3c3565;fill-opacity:1;fill-rule:nonzero;stroke:none" id="path204"/>
      <path d="m 5907.39,1498.67 c -3.67,-15.22 -7.43,-31.28 -11.25,-48.25 h 524.9 c -3.45,16.39 -6.95,32.57 -10.48,48.25 h -503.17" style="fill:#3c3565;fill-opacity:1;fill-rule:nonzero;stroke:none" id="path206"/>
      <path d="m 5950.65,2025.03 2.14,-48.25 h 339.54 l 5.63,48.25 h -347.31" style="fill:#3c3565;fill-opacity:1;fill-rule:nonzero;stroke:none" id="path208"/>
      <path d="m 5964.97,1761.85 c -0.22,-15.46 -1.29,-31.87 -3.72,-48.25 h 377.79 c -8.76,17.77 -17.45,33.99 -25.51,48.25 h -348.56" style="fill:#3c3565;fill-opacity:1;fill-rule:nonzero;stroke:none" id="path210"/>
      <path d="m 6065.51,2315.64 c 0,0 -12.14,-160.44 -14.58,-172.6 -2.43,-12.14 -2.43,-65.63 -2.43,-65.63 l 165.3,14.59 v 252.82 l -148.29,-29.18" style="fill:#f47070;fill-opacity:1;fill-rule:nonzero;stroke:none" id="path212"/>
      <path d="m 6063.08,2172.22 -48.61,-486.19 -94.81,4.87 -7.29,316.01 c 0,0 -58.99,-234.03 -85.09,-247.95 -36.46,-19.45 -68.06,-14.59 -85.08,0 -17.02,14.58 -63.2,99.67 -63.2,99.67 l 9.72,34.03 80.22,-17.02 c 0,0 43.76,138.57 63.2,201.77 19.45,63.21 12.16,111.83 51.06,111.83 38.89,0 82.65,-4.87 99.67,-4.87 17.01,0 80.21,-12.15 80.21,-12.15" style="fill:#dcbba5;fill-opacity:1;fill-rule:nonzero;stroke:none" id="path214"/>
      <path d="m 5654.68,1916.97 c 0,0 -26.73,-80.23 -2.43,-97.24 24.32,-17.02 58.35,-43.76 77.8,-29.17 19.44,14.58 38.89,55.91 38.89,70.5 0,14.58 -36.46,36.47 -36.46,36.47 0,0 -2.43,17.01 -24.31,34.03 -21.88,17.01 -43.76,14.58 -53.49,-14.59" style="fill:#f89d87;fill-opacity:1;fill-rule:nonzero;stroke:none" id="path216"/>
      <path d="m 6182.2,2157.63 38.9,-459.45 131.27,-2.43 -21.88,257.68 c 0,0 75.36,-155.58 116.68,-160.44 41.33,-4.86 70.5,29.17 51.06,106.97 -19.45,77.78 -65.64,201.77 -104.53,216.35 -38.9,14.59 -211.5,41.32 -211.5,41.32" style="fill:#dcbba5;fill-opacity:1;fill-rule:nonzero;stroke:none" id="path218"/>
      <path d="m 6245.41,2344.82 c 0,0 9.72,-94.81 34.03,-133.71 24.31,-38.89 26.74,-92.37 -4.86,-133.7 -31.61,-41.32 -75.37,-82.65 -58.34,-116.68 17.01,-34.03 53.47,-43.76 53.47,-43.76 0,0 2.43,-17.01 -43.75,-7.3 -46.19,9.73 -102.1,65.64 -80.22,138.57 21.87,72.93 46.19,165.3 46.19,201.77 0,36.46 4.86,126.41 4.86,126.41 l 48.62,-31.6" style="fill:#3c3565;fill-opacity:1;fill-rule:nonzero;stroke:none" id="path220"/>
      <path d="m 6038.78,2398.3 c 0,0 -34.04,-143.43 -53.48,-201.77 -19.45,-58.34 12.15,-131.27 19.44,-162.87 7.3,-31.6 2.43,-68.07 -9.72,-82.66 -12.15,-14.59 -24.31,-21.87 -24.31,-21.87 0,0 63.2,-19.46 87.51,26.74 24.31,46.19 12.16,133.7 12.16,196.9 0,63.2 -7.3,141 -4.87,162.87 2.44,21.89 2.44,77.79 2.44,77.79 0,0 -4.87,34.04 -29.17,4.87" style="fill:#3c3565;fill-opacity:1;fill-rule:nonzero;stroke:none" id="path222"/>
      <path d="m 6048.5,2373.99 c 0,0 -24.3,0 -24.3,36.47 0,36.46 55.9,116.68 116.67,133.7 60.78,17.01 97.24,-26.75 111.83,-68.07 14.58,-41.33 29.17,-109.39 17.01,-136.13 -12.15,-26.74 -41.32,0 -55.91,4.86 -14.59,4.85 -114.25,46.18 -165.3,29.17" style="fill:#f68626;fill-opacity:1;fill-rule:nonzero;stroke:none" id="path224"/>
      <path d="m 6043.64,2388.57 c 0,0 -2.43,-111.82 38.89,-145.85 41.33,-34.03 94.81,21.88 109.4,43.75 14.58,21.89 21.87,58.35 21.87,58.35 0,0 -80.22,89.94 -170.16,43.75" style="fill:#f89d87;fill-opacity:1;fill-rule:nonzero;stroke:none" id="path226"/>
      <path d="m 6369.38,2111.44 c 0,0 53.49,-311.16 70.5,-323.31 17.02,-12.16 97.24,-17.02 106.96,38.9 9.73,55.91 -85.08,291.71 -85.08,291.71 0,0 -63.2,31.6 -92.38,-7.3" style="fill:#dcbba5;fill-opacity:1;fill-rule:nonzero;stroke:none" id="path228"/>
      <path d="m 6376.68,2179.51 c 0,0 -38.9,-43.75 -31.61,-60.77 7.3,-17.01 63.21,-9.73 63.21,-9.73 0,0 65.63,0 77.79,26.75 12.16,26.74 -38.9,63.2 -38.9,63.2 0,0 21.89,111.83 12.16,111.83 h -10.01 c -5.55,0 -10.4,-3.77 -11.78,-9.15 l -24.4,-95.38 -32.9,94.31 c -2.03,5.82 -8.1,9.2 -14.12,7.86 v 0 c -6.34,-1.4 -10.45,-7.53 -9.34,-13.93 l 19.9,-114.99" style="fill:#f89d87;fill-opacity:1;fill-rule:nonzero;stroke:none" id="path230"/>
      <path d="m 6447.17,2198.96 c 0,0 -65.63,-92.37 -38.89,-89.95 26.75,2.43 72.93,68.07 68.06,80.23 -4.85,12.15 -29.17,9.72 -29.17,9.72" style="fill:#f9b2a0;fill-opacity:1;fill-rule:nonzero;stroke:none" id="path232"/>
      <path d="m 6476.34,2189.24 c 0,0 -48.61,-80.23 -31.6,-75.37 17.02,4.87 38.9,26.75 46.19,43.76 7.3,17.02 12.16,34.04 -14.59,31.61" style="fill:#f9b2a0;fill-opacity:1;fill-rule:nonzero;stroke:none" id="path234"/>
      <path d="m 6349.94,2157.63 -4.87,-38.89 63.21,-9.73 4.86,29.18 -63.2,19.44" style="fill:#f9b2a0;fill-opacity:1;fill-rule:nonzero;stroke:none" id="path236"/>
      <path d="m 5710.6,1847.45 c -4.14,0 -8.22,1.87 -10.9,5.44 l -218.78,291.71 c -1.89,2.53 -2.85,5.62 -2.71,8.77 l 4.86,111.82 c 0.33,7.5 6.4,13.36 14.2,13.01 7.51,-0.33 13.33,-6.68 13.01,-14.2 l -4.66,-106.96 215.86,-287.81 c 4.51,-6.02 3.29,-14.56 -2.71,-19.07 -2.46,-1.83 -5.33,-2.71 -8.17,-2.71" style="fill:#3c3565;fill-opacity:1;fill-rule:nonzero;stroke:none" id="path238"/>
      <path d="m 5620.65,2240.29 h -213.93 c -13.41,0 -24.3,10.88 -24.3,24.31 v 87.51 c 0,13.42 10.89,24.31 24.3,24.31 h 213.93 c 13.43,0 24.31,-10.89 24.31,-24.31 v -87.51 c 0,-13.43 -10.88,-24.31 -24.31,-24.31" style="fill:#dcbba5;fill-opacity:1;fill-rule:nonzero;stroke:none" id="path240"/>
      <path d="m 5452.92,2240.29 h 31.6 v 136.13 h -31.6 v -136.13" style="fill:#3c3565;fill-opacity:1;fill-rule:nonzero;stroke:none" id="path242"/>
      <path d="m 6533.6,2754.45 c 0,-46.94 -192.52,-85 -430,-85 -237.48,0 -430,38.06 -430,85 0,46.94 192.52,85 430,85 237.48,0 430,-38.06 430,-85" style="fill:#e5e5e0;fill-opacity:1;fill-rule:nonzero;stroke:none" id="path244"/>
      <path d="m 5785.69,3949.56 c -4.07,0 -7.77,2.75 -8.81,6.89 l -139.51,562.61 c -1.21,4.87 1.76,9.8 6.62,11 4.78,1.21 9.78,-1.76 11,-6.63 l 139.51,-562.62 c 1.21,-4.86 -1.76,-9.78 -6.62,-10.99 -0.74,-0.17 -1.47,-0.26 -2.19,-0.26" style="fill:#3c3565;fill-opacity:1;fill-rule:nonzero;stroke:none" id="path246"/>
      <path d="m 5755.96,4536.48 h -213.92 c -13.43,0 -24.31,10.89 -24.31,24.31 v 87.51 c 0,13.43 10.88,24.31 24.31,24.31 h 213.92 c 13.42,0 24.31,-10.88 24.31,-24.31 v -87.51 c 0,-13.42 -10.89,-24.31 -24.31,-24.31" style="fill:#dcbba5;fill-opacity:1;fill-rule:nonzero;stroke:none" id="path248"/>
      <path d="m 5816.83,4574.46 c 0,0 -65.95,81.04 -15.08,177.15 50.89,96.12 184.7,71.62 263.85,32.04 79.15,-39.58 118.73,-137.57 124.39,-207.31 5.65,-69.73 -52.78,-84.8 -52.78,-84.8 l -122.5,118.73 c 0,0 -101.76,58.42 -197.88,-35.81" style="fill:#f68626;fill-opacity:1;fill-rule:nonzero;stroke:none" id="path250"/>
      <path d="m 6012.83,4698.84 c 0,0 -24.5,43.35 -90.46,41.46 -65.96,-1.88 -75.38,-45.23 -67.84,-56.53 7.54,-11.31 13.19,-16.96 13.19,-16.96 0,0 -79.16,-90.47 -73.5,-124.38 5.65,-33.93 30.15,-18.85 26.38,-47.12 -3.77,-28.27 -64.07,-45.24 -50.89,-90.46 13.2,-45.23 39.58,-62.19 39.58,-62.19 0,0 -7.54,-212.96 13.2,-277.04 20.73,-64.07 67.84,-28.27 65.95,-65.96 -1.88,-37.69 -32.03,-62.19 1.89,-99.88 33.92,-37.7 141.35,-141.35 343,-94.23 201.65,47.11 195.99,158.3 158.31,211.08 -37.7,52.76 -82.93,52.76 -65.97,107.42 16.96,54.65 81.04,69.72 32.04,133.8 -49,64.08 -118.73,69.73 -145.12,113.08 -26.37,43.34 -47.11,45.22 -48.99,116.84 -1.89,71.61 -16.96,86.69 -60.31,141.34 -43.34,54.66 -90.46,69.73 -90.46,69.73" style="fill:#3c3565;fill-opacity:1;fill-rule:nonzero;stroke:none" id="path252"/>
      <path d="m 5839.45,4369.04 c 0,0 -33.93,32.04 -56.54,-7.54 -22.61,-39.57 -30.15,-158.3 -30.15,-196 0,-37.69 -3.77,-101.76 -3.77,-128.15 0,-26.38 22.61,-71.61 56.53,-64.08 33.93,7.54 43.35,90.47 49.01,154.54 5.65,64.08 20.73,203.54 20.73,203.54 l -35.81,37.69" style="fill:#f89d87;fill-opacity:1;fill-rule:nonzero;stroke:none" id="path254"/>
      <path d="m 5880.9,4357.73 -41.45,11.31 c 0,0 -15.08,-211.08 -13.19,-241.23 1.88,-30.15 75.38,-43.35 84.8,-47.11 9.42,-3.77 73.5,-82.92 73.5,-82.92 0,0 -73.5,-143.23 -75.38,-209.19 -1.89,-65.97 43.35,-192.23 47.12,-207.31 3.76,-15.08 5.65,-256.3 5.65,-256.3 h 420.26 c 0,0 -15.08,177.15 -13.19,309.07 1.88,131.92 -22.62,261.96 -94.23,348.65 -71.62,86.69 -113.08,118.73 -113.08,118.73 0,0 22.62,237.45 18.85,271.38 -3.77,33.92 -88.57,13.19 -88.57,13.19 l -133.81,-30.15 -77.28,1.88" style="fill:#f0354e;fill-opacity:1;fill-rule:nonzero;stroke:none" id="path256"/>
      <path d="m 5918.6,4472.69 c 0,0 16.96,-99.88 18.85,-105.53 1.88,-5.66 -62.19,-5.66 -62.19,-5.66 0,0 -16.96,-99.88 -16.96,-130.03 0,-30.16 -3.77,-64.08 -3.77,-64.08 l 209.19,43.34 28.27,175.27 -81.05,-11.3 v 180.92 c 0,0 -30.14,-62.19 -92.34,-82.93" style="fill:#f89d87;fill-opacity:1;fill-rule:nonzero;stroke:none" id="path258"/>
      <path d="m 5877.14,4670.57 c 0,0 -24.5,-163.96 -1.88,-197.88 22.61,-33.92 79.15,-16.96 124.38,39.58 45.23,56.53 24.5,169.61 13.19,186.57 -11.31,16.97 -124.39,9.43 -135.69,-28.27" style="fill:#f89d87;fill-opacity:1;fill-rule:nonzero;stroke:none" id="path260"/>
      <path d="m 5937.5,3436.3 98.06,136.83 31.93,-148.23" style="fill:none;stroke:#3c3565;stroke-width:5;stroke-linecap:butt;stroke-linejoin:miter;stroke-miterlimit:10;stroke-dasharray:none;stroke-opacity:1" id="path262"/>
      <path d="m 6188.36,3422.62 -152.8,150.51 -59.29,-155.07" style="fill:none;stroke:#3c3565;stroke-width:5;stroke-linecap:butt;stroke-linejoin:miter;stroke-miterlimit:10;stroke-dasharray:none;stroke-opacity:1" id="path264"/>
      <path d="m 6229.4,3420.33 -193.84,152.8 -31.93,-155.07" style="fill:none;stroke:#3c3565;stroke-width:5;stroke-linecap:butt;stroke-linejoin:miter;stroke-miterlimit:10;stroke-dasharray:none;stroke-opacity:1" id="path266"/>
      <path d="m 6105.17,4348.31 c 0,0 -24.49,-180.92 -60.3,-277.03 -35.81,-96.12 -64.07,-277.04 -77.27,-344.89 -13.19,-67.84 -22.61,-109.3 -20.73,-114.96 1.89,-5.65 60.3,-105.53 60.3,-105.53 0,0 64.09,26.38 65.97,37.69 1.89,11.3 1.89,47.11 -9.42,52.77 -11.31,5.65 -69.74,28.27 -69.74,28.27 0,0 137.58,382.57 162.08,469.26 24.5,86.69 62.19,211.07 58.42,258.19 -3.77,47.11 -47.11,56.54 -73.5,47.11 -26.38,-9.42 -37.69,-22.61 -37.69,-22.61" style="fill:#f89d87;fill-opacity:1;fill-rule:nonzero;stroke:none" id="path268"/>
      <path d="m 5696.22,4157.96 c 0,0 22.61,-113.07 37.69,-116.84 15.08,-3.77 75.38,13.19 77.27,28.27 1.88,15.07 -11.31,67.84 -11.31,67.84 l -16.96,7.54 c 0,0 15.07,9.43 15.07,22.62 0,13.19 -45.22,22.61 -101.76,-9.43" style="fill:#f89d87;fill-opacity:1;fill-rule:nonzero;stroke:none" id="path270"/>
      <path d="M 5613.28,4673.25 V 4539.39 H 5670 v 129.32 l -56.72,4.54" style="fill:#3c3565;fill-opacity:1;fill-rule:nonzero;stroke:none" id="path272"/>
      <path d="m 5672.26,4503.1 h -52.18 v 36.29 h 52.18 v -36.29" style="fill:#3c3565;fill-opacity:1;fill-rule:nonzero;stroke:none" id="path274"/>
      <path d="m 6001.35,2904.95 c 0,0 -59.29,-116.31 -38.77,-143.67 20.53,-27.37 61.58,-9.12 82.1,34.21 20.53,43.33 29.65,109.46 29.65,109.46 h -72.98" style="fill:#f89d87;fill-opacity:1;fill-rule:nonzero;stroke:none" id="path276"/>
      <path d="m 5969.68,2830.63 c -3.96,-11.56 -7.32,-23.12 -9.34,-33.61 l 77.47,-13.83 c 2.46,3.85 4.79,7.91 6.87,12.3 3.26,6.86 6.19,14.33 8.88,21.99 l -83.88,13.15" style="fill:#f68626;fill-opacity:1;fill-rule:nonzero;stroke:none" id="path278"/>
      <path d="m 6215.72,2916.35 c 0,0 -52.45,-52.45 -82.1,-75.26 -29.65,-22.8 -70.69,-47.89 -54.73,-61.57 15.96,-13.68 184.72,6.84 198.4,15.97 13.68,9.12 4.56,127.7 4.56,127.7 l -66.13,-6.84" style="fill:#f89d87;fill-opacity:1;fill-rule:nonzero;stroke:none" id="path280"/>
      <path d="m 6116.38,2828.25 31.71,-51.89 c 15.49,1.04 31.99,2.59 47.9,4.41 l -46.36,73.53 c -5.71,-4.94 -11.18,-9.49 -16.01,-13.21 -5.5,-4.23 -11.39,-8.53 -17.24,-12.84" style="fill:#f68626;fill-opacity:1;fill-rule:nonzero;stroke:none" id="path282"/>
      <path d="m 6142.74,3431.74 68.42,-4.56 95.78,-513.11 -387.69,-36.49 70.7,540.48 152.79,13.68" style="fill:#4ebd3a;fill-opacity:1;fill-rule:nonzero;stroke:none" id="path284"/>
      <path d="m 5937.5,3436.3 h 237.17 l 68.41,-449.26 -367.16,-25.08 61.58,474.34" style="fill:#56afe5;fill-opacity:1;fill-rule:nonzero;stroke:none" id="path286"/>
      <path d="m 5896.45,3438.58 198.4,-20.52 -79.81,-301.03 -221.22,52.45 102.63,269.1" style="fill:#f68626;fill-opacity:1;fill-rule:nonzero;stroke:none" id="path288"/>
      <path d="m 6094.85,3418.06 -34.21,-310.15 -45.6,9.12 z" style="fill:#f3642e;fill-opacity:1;fill-rule:nonzero;stroke:none" id="path290"/>
      <path d="m 6243.08,2987.04 22.8,41.05 -77.52,394.53 -13.69,13.68 68.41,-449.26" style="fill:#6676c3;fill-opacity:1;fill-rule:nonzero;stroke:none" id="path292"/>
      <path d="m 6306.94,2914.07 63.85,50.17 -114.03,456.09 -45.6,6.85 95.78,-513.11" style="fill:#597a35;fill-opacity:1;fill-rule:nonzero;stroke:none" id="path294"/>
      <path d="m 3851.04,358.988 c -4.32,-4.418 -8.04,-9.308 -11.08,-14.527 l -4.65,2.41 c -0.67,2.981 -3.5,5.027 -6.59,4.668 -3.31,-0.391 -5.68,-3.391 -5.3,-6.699 0.39,-3.309 3.39,-5.68 6.7,-5.289 0.66,0.078 1.27,0.258 1.84,0.531 l 4.51,-2.352 c -2.51,-5.539 -4.33,-11.39 -5.39,-17.441 l 7.47,-1.32 c 2.3,13.07 8.5,25.07 17.91,34.73 l -5.42,5.289" style="fill:#232126;fill-opacity:1;fill-rule:nonzero;stroke:none" id="path296"/>
      <path d="m 3905.91,382.02 c -1.7,0 -3.4,-0.071 -5.09,-0.18 l -0.74,6.262 c 1.88,1.5 2.96,3.898 2.66,6.449 -0.46,3.929 -4.02,6.75 -7.95,6.281 -3.93,-0.461 -6.75,-4.031 -6.28,-7.953 0.3,-2.539 1.9,-4.609 4.04,-5.637 l 0.74,-6.242 c -7.14,-1.16 -14.03,-3.32 -20.6,-6.461 l 3.27,-6.84 c 9.34,4.461 19.42,6.731 29.95,6.731 4.98,0 9.94,-0.528 14.76,-1.571 l 1.6,7.411 c -5.35,1.152 -10.85,1.75 -16.36,1.75" style="fill:#232126;fill-opacity:1;fill-rule:nonzero;stroke:none" id="path298"/>
      <path d="m 3971.94,356.539 c 3.31,0.41 5.66,3.422 5.25,6.731 -0.4,3.3 -3.4,5.652 -6.72,5.25 -3.09,-0.379 -5.35,-3.028 -5.3,-6.09 l -4.16,-3.621 c -4.18,4.293 -8.89,8.121 -14.07,11.382 l -4.04,-6.41 c 11.34,-7.14 20.2,-17.261 25.63,-29.25 l 6.91,3.121 c -2.51,5.547 -5.68,10.727 -9.43,15.45 l 4.03,3.519 c 0.61,-0.133 1.25,-0.16 1.9,-0.082" style="fill:#232126;fill-opacity:1;fill-rule:nonzero;stroke:none" id="path300"/>
      <path d="m 3900.45,279.93 c -3.86,-0.239 -7.76,-0.34 -11.58,-0.34 -8.8,0 -17.33,0.601 -24.78,1.781 -3.91,0.629 -8.46,1.559 -12.71,2.918 10.47,-18.609 30.7,-31.25 53.89,-31.25 28.55,0 52.62,19.16 59.49,45.043 -6.81,-4.492 -15.05,-8.25 -24.58,-11.23 -11.79,-3.672 -25.54,-6.071 -39.73,-6.922" style="fill:#232126;fill-opacity:1;fill-rule:nonzero;stroke:none" id="path302"/>
      <path d="m 3931.7,310.789 c -7.5,0 -13.61,6.102 -13.61,13.602 0,7.5 6.11,13.601 13.61,13.601 7.5,0 13.6,-6.101 13.6,-13.601 0,-7.5 -6.1,-13.602 -13.6,-13.602 z m -47.38,-9.078 c -10.19,0 -18.49,8.301 -18.49,18.488 0,10.199 8.3,18.5 18.49,18.5 10.2,0 18.5,-8.301 18.5,-18.5 0,-10.187 -8.3,-18.488 -18.5,-18.488 z m 21.59,65.141 c -33.51,0 -60.79,-26.661 -60.79,-59.43 0,-4.262 0.46,-8.5 1.37,-12.621 6.74,-4.821 27.06,-8.891 53.48,-7.301 28.8,1.73 52.97,9.57 66.72,21.582 -0.05,1.949 -0.21,3.898 -0.45,5.816 -3.8,29.622 -29.74,51.954 -60.33,51.954" style="fill:#232126;fill-opacity:1;fill-rule:nonzero;stroke:none" id="path304"/>
      <path d="m 4065.95,348.18 c -2.95,1.16 -8.05,3.09 -13.82,2.371 -5.51,-0.68 -8.44,-3.403 -8.44,-10.059 v -8.66 h 22.28 V 314.66 h -22.28 v -54.558 h -19.32 v 54.558 h -13.4 v 17.172 h 13.4 v 8.879 c 0,16.801 8.96,27.828 25.68,27.828 6.43,0 11.58,-1.219 15.9,-3.078 V 348.18" style="fill:#232126;fill-opacity:1;fill-rule:nonzero;stroke:none" id="path306"/>
      <path d="m 4112.97,314.859 c -1.76,0.301 -3.57,0.461 -5.26,0.461 -8.95,0 -15.1,-5.468 -15.1,-16.129 v -39.089 h -19.31 v 71.73 h 18.73 v -7.852 c 4.51,6.739 11.39,9.782 20.2,9.782 4.14,0 8.48,-1.282 10.94,-3.371 l -10.2,-15.532" style="fill:#232126;fill-opacity:1;fill-rule:nonzero;stroke:none" id="path308"/>
      <path d="m 4138.5,302.738 h 31.76 c -1.78,9.184 -7.33,14.364 -15.62,14.364 -9.11,0 -14.43,-5.481 -16.14,-14.364 z m 51.15,-6.656 c 0,-2.23 -0.15,-4.883 -0.37,-6.512 h -50.85 c 2.07,-10.359 9.33,-14.879 18.43,-14.879 6.22,0 12.95,2.508 18.14,6.879 l 11.32,-12.429 c -8.14,-7.469 -18.5,-10.879 -30.57,-10.879 -21.98,0 -37.23,14.949 -37.23,37.519 0,22.578 14.81,37.981 36.27,37.981 20.65,0 34.79,-15.332 34.86,-37.68" style="fill:#232126;fill-opacity:1;fill-rule:nonzero;stroke:none" id="path310"/>
      <path d="m 4215.04,302.738 h 31.75 c -1.77,9.184 -7.33,14.364 -15.61,14.364 -9.11,0 -14.44,-5.481 -16.14,-14.364 z m 51.15,-6.656 c 0,-2.23 -0.16,-4.883 -0.37,-6.512 h -50.85 c 2.07,-10.359 9.32,-14.879 18.42,-14.879 6.23,0 12.95,2.508 18.14,6.879 l 11.32,-12.429 c -8.14,-7.469 -18.5,-10.879 -30.57,-10.879 -21.98,0 -37.23,14.949 -37.23,37.519 0,22.578 14.81,37.981 36.27,37.981 20.65,0 34.79,-15.332 34.87,-37.68" style="fill:#232126;fill-opacity:1;fill-rule:nonzero;stroke:none" id="path312"/>
      <path d="m 4292.87,296 c 0,-11.32 7.48,-19.75 18.43,-19.75 11.4,0 18.5,8.809 18.5,19.75 0,10.961 -7.1,19.77 -18.5,19.77 -10.95,0 -18.43,-8.438 -18.43,-19.77 z m 56.77,0 c 0,-21.531 -14.95,-37.738 -34.71,-37.738 -9.62,0 -16.44,3.769 -21.1,9.32 V 230.5 h -19.24 v 101.332 h 18.87 v -7.922 c 4.66,5.84 11.55,9.852 21.39,9.852 19.84,0 34.79,-16.211 34.79,-37.762" style="fill:#232126;fill-opacity:1;fill-rule:nonzero;stroke:none" id="path314"/>
      <path d="m 4378.08,260.102 h -19.31 v 71.73 h 19.31 z m 2.59,95.187 c 0,-6.949 -5.4,-12.289 -12.35,-12.289 -6.97,0 -12.29,5.34 -12.29,12.289 0,6.961 5.32,12.43 12.29,12.43 6.95,0 12.35,-5.469 12.35,-12.43" style="fill:#232126;fill-opacity:1;fill-rule:nonzero;stroke:none" id="path316"/>
      <path d="m 4410.32,306.301 27.02,25.531 h 23.68 l -34.78,-33.75 35.01,-37.98 h -23.76 l -27.17,29.019 V 260.102 H 4391 v 106.589 h 19.32 v -60.39" style="fill:#232126;fill-opacity:1;fill-rule:nonzero;stroke:none" id="path318"/>
      <path d="m 3094.12,279.949 v 32.082 c -3.95,6.149 -12.44,11.418 -21.24,11.418 -14.2,0 -22.7,-11.707 -22.7,-27.39 0,-15.668 8.5,-27.239 22.7,-27.239 8.8,0 17.29,4.981 21.24,11.129 z m 0,-19.187 v 10.547 c -5.27,-7.18 -13.91,-12.309 -23.87,-12.309 -18.46,0 -31.49,14.059 -31.49,37.059 0,22.562 12.89,37.211 31.49,37.211 9.52,0 18.16,-4.688 23.87,-12.45 v 37.641 h 10.99 v -97.699 h -10.99" style="fill:#232126;fill-opacity:1;fill-rule:nonzero;stroke:none" id="path320"/>
      <path d="m 3154.03,324.191 c -15.08,0 -22.55,-12.75 -23.14,-23.589 h 46.44 c -0.15,10.546 -7.18,23.589 -23.3,23.589 z m -34.71,-27.98 c 0,20.508 14.65,37.059 34.86,37.059 21.39,0 33.98,-16.7 33.98,-37.938 v -2.781 h -57.27 c 0.88,-13.332 10.25,-24.469 25.49,-24.469 8.05,0 16.26,3.227 21.82,8.938 l 5.27,-7.18 c -7.03,-7.031 -16.54,-10.84 -28.12,-10.84 -20.94,0 -36.03,15.09 -36.03,37.211" style="fill:#232126;fill-opacity:1;fill-rule:nonzero;stroke:none" id="path322"/>
      <path d="m 3196.07,270.129 5.71,7.91 c 4.69,-5.418 13.63,-10.098 23.29,-10.098 10.84,0 16.7,5.118 16.7,12.149 0,17.14 -43.8,6.601 -43.8,32.82 0,10.981 9.52,20.36 26.37,20.36 12.01,0 20.51,-4.54 26.22,-10.258 l -5.13,-7.614 c -4.24,5.122 -12.01,8.934 -21.09,8.934 -9.67,0 -15.67,-4.832 -15.67,-11.133 0,-15.527 43.79,-5.269 43.79,-32.808 0,-11.871 -9.51,-21.391 -27.82,-21.391 -11.58,0 -21.4,3.52 -28.57,11.129" style="fill:#232126;fill-opacity:1;fill-rule:nonzero;stroke:none" id="path324"/>
      <path d="m 3266.67,260.762 v 70.75 h 10.99 v -70.75 z m -1.9,88.179 c 0,4.098 3.37,7.461 7.32,7.461 4.1,0 7.47,-3.363 7.47,-7.461 0,-4.101 -3.37,-7.32 -7.47,-7.32 -3.95,0 -7.32,3.219 -7.32,7.32" style="fill:#232126;fill-opacity:1;fill-rule:nonzero;stroke:none" id="path326"/>
      <path d="m 3347.09,281.121 v 30.91 c -3.81,6.149 -12.31,11.418 -21.1,11.418 -14.21,0 -22.7,-11.277 -22.7,-26.949 0,-15.531 8.49,-26.949 22.7,-26.949 8.79,0 17.29,5.418 21.1,11.57 z m -51.27,-38.531 5.56,8.211 c 5.86,-7.031 12.89,-9.672 23,-9.672 11.72,0 22.71,5.711 22.71,21.242 v 10.109 c -5.13,-7.179 -13.77,-12.601 -23.73,-12.601 -18.46,0 -31.5,13.769 -31.5,36.621 0,22.711 12.89,36.77 31.5,36.77 9.52,0 18.01,-4.688 23.73,-12.45 v 10.692 h 10.98 v -68.703 c 0,-23.438 -16.4,-30.758 -33.69,-30.758 -12.01,0 -20.21,2.34 -28.56,10.539" style="fill:#232126;fill-opacity:1;fill-rule:nonzero;stroke:none" id="path328"/>
      <path d="m 3424.13,260.762 v 46.289 c 0,12.449 -6.3,16.398 -15.82,16.398 -8.64,0 -16.84,-5.269 -20.94,-10.98 v -51.707 h -10.99 v 70.75 h 10.99 v -10.25 c 4.97,5.847 14.64,12.008 25.19,12.008 14.79,0 22.56,-7.469 22.56,-22.848 v -49.66 h -10.99" style="fill:#232126;fill-opacity:1;fill-rule:nonzero;stroke:none" id="path330"/>
      <path d="m 3484.04,324.191 c -15.09,0 -22.56,-12.75 -23.14,-23.589 h 46.43 c -0.15,10.546 -7.18,23.589 -23.29,23.589 z m -34.72,-27.98 c 0,20.508 14.65,37.059 34.87,37.059 21.38,0 33.98,-16.7 33.98,-37.938 v -2.781 h -57.27 c 0.88,-13.332 10.25,-24.469 25.48,-24.469 8.06,0 16.26,3.227 21.83,8.938 l 5.27,-7.18 c -7.03,-7.031 -16.55,-10.84 -28.12,-10.84 -20.94,0 -36.04,15.09 -36.04,37.211" style="fill:#232126;fill-opacity:1;fill-rule:nonzero;stroke:none" id="path332"/>
      <path d="m 3583.5,279.949 v 32.082 c -3.96,6.149 -12.45,11.418 -21.24,11.418 -14.21,0 -22.7,-11.707 -22.7,-27.39 0,-15.668 8.49,-27.239 22.7,-27.239 8.79,0 17.28,4.981 21.24,11.129 z m 0,-19.187 v 10.547 c -5.27,-7.18 -13.91,-12.309 -23.88,-12.309 -18.45,0 -31.49,14.059 -31.49,37.059 0,22.562 12.89,37.211 31.49,37.211 9.52,0 18.17,-4.688 23.88,-12.45 v 37.641 h 10.98 v -97.699 h -10.98" style="fill:#232126;fill-opacity:1;fill-rule:nonzero;stroke:none" id="path334"/>
      <path d="m 3679,268.82 c 14.36,0 22.85,11.571 22.85,27.239 0,15.683 -8.49,27.39 -22.85,27.39 -8.64,0 -17.28,-5.269 -21.09,-11.418 v -32.082 c 3.81,-6.148 12.45,-11.129 21.09,-11.129 z m -32.08,-8.058 v 97.699 h 10.99 V 320.82 c 5.71,7.762 14.21,12.45 23.87,12.45 18.46,0 31.5,-14.649 31.5,-37.211 0,-23 -13.04,-37.059 -31.5,-37.059 -9.96,0 -18.6,5.129 -23.87,12.309 v -10.547 h -10.99" style="fill:#232126;fill-opacity:1;fill-rule:nonzero;stroke:none" id="path336"/>
      <path d="m 3725.28,243.031 c 1.62,-0.73 4.25,-1.172 6.01,-1.172 4.83,0 8.06,1.61 10.55,7.473 l 4.68,10.699 -29.59,71.481 h 11.87 l 23.58,-58.012 23.44,58.012 h 12.01 l -35.45,-85.11 c -4.24,-10.254 -11.42,-14.211 -20.8,-14.351 -2.34,0 -6,0.437 -8.05,1.019 l 1.75,9.961" style="fill:#232126;fill-opacity:1;fill-rule:nonzero;stroke:none" id="path338"/>
    </g>
  </g>
  <ellipse style="fill: rgb(211, 69, 69);" cx="-309.233" cy="18.583" rx="6.373" ry="3.315" transform="matrix(-1, 0, 0, -1, 0, 0)"/>
  <ellipse style="fill: rgba(255, 255, 255, 0);" cx="305.122" cy="-17.258" rx="0.03" ry="0.327"/>
</svg>