<?xml version="1.0" encoding="iso-8859-1"?>
<!-- Generator: Adobe Illustrator 16.0.0, SVG Export Plug-In . SVG Version: 6.00 Build 0)  -->
<!DOCTYPE svg PUBLIC "-//W3C//DTD SVG 1.1//EN" "http://www.w3.org/Graphics/SVG/1.1/DTD/svg11.dtd">
<svg version="1.1" id="Capa_1" xmlns="http://www.w3.org/2000/svg" xmlns:xlink="http://www.w3.org/1999/xlink" x="0px" y="0px"
	 width="31.653px" height="31.653px" viewBox="0 0 31.653 31.653" style="enable-background:new 0 0 31.653 31.653;"
	 xml:space="preserve">
<g>
	<path d="M27.936,5.153c-0.644-2.089-2.629-3.698-4.123-4.654c-1.021-0.651-2.324-0.666-3.357-0.039l-2.667,1.616
		c-1.207,0.731-2.718,0.731-3.924,0L11.198,0.46C10.163-0.167,8.86-0.152,7.841,0.499C6.345,1.455,4.359,3.064,3.716,5.153
		C2.64,8.647,1.028,12.947,5.059,17.786c0,0-2.149,9.139,2.956,13.438c0,0,3.73,1.68,3.226-1.612
		c-0.327-2.139-0.303-10.059,4.585-10.445c4.889,0.387,4.913,8.308,4.584,10.445c-0.503,3.292,3.226,1.612,3.226,1.612
		c5.106-4.3,2.957-13.438,2.957-13.438C30.625,12.948,29.012,8.647,27.936,5.153z"/>
</g>
<g>
</g>
<g>
</g>
<g>
</g>
<g>
</g>
<g>
</g>
<g>
</g>
<g>
</g>
<g>
</g>
<g>
</g>
<g>
</g>
<g>
</g>
<g>
</g>
<g>
</g>
<g>
</g>
<g>
</g>
</svg>
