<?xml version="1.0" standalone="no"?>
<!DOCTYPE svg PUBLIC "-//W3C//DTD SVG 20010904//EN"
 "http://www.w3.org/TR/2001/REC-SVG-20010904/DTD/svg10.dtd">
<svg version="1.0" xmlns="http://www.w3.org/2000/svg"
 width="512.000000pt" height="512.000000pt" viewBox="0 0 512.000000 512.000000"
 preserveAspectRatio="xMidYMid meet">

<g transform="translate(0.000000,512.000000) scale(0.100000,-0.100000)"
fill="#000000" stroke="none">
<path d="M830 5101 c-291 -66 -605 -287 -716 -504 -32 -61 -68 -202 -91 -347
-27 -176 -25 -595 5 -786 24 -156 75 -351 152 -583 90 -271 172 -434 323 -645
39 -55 77 -118 86 -140 12 -34 16 -142 22 -631 7 -575 11 -658 44 -832 42
-225 129 -395 257 -501 86 -72 139 -91 208 -72 102 27 154 122 315 575 128
360 194 524 273 683 104 208 191 316 257 316 72 0 161 -118 283 -374 73 -153
112 -251 267 -685 116 -322 153 -404 210 -461 98 -97 203 -78 338 62 124 128
191 301 233 594 14 104 18 216 20 660 2 307 8 565 14 605 7 41 22 88 37 114
49 84 31 165 -47 219 -86 58 -190 5 -249 -129 -48 -108 -54 -188 -56 -754 -1
-349 -6 -564 -14 -630 -15 -126 -43 -254 -70 -326 -43 -113 -36 -123 -155 212
-234 658 -358 912 -519 1067 -140 134 -303 166 -464 90 -68 -32 -176 -139
-244 -243 -115 -174 -205 -381 -394 -910 -59 -165 -109 -302 -111 -304 -7 -8
-62 125 -78 192 -44 174 -49 260 -51 832 -3 699 -7 722 -134 899 -190 264
-244 376 -361 756 -84 273 -120 500 -120 757 0 212 38 484 80 580 28 63 102
137 210 209 114 75 206 119 297 140 139 32 238 -9 503 -206 262 -195 388 -250
575 -250 187 0 313 55 575 250 202 151 284 195 393 214 42 8 88 21 102 30 95
62 84 210 -19 260 -36 18 -47 18 -128 7 -162 -21 -261 -70 -503 -251 -235
-175 -305 -210 -421 -210 -114 0 -184 35 -422 213 -250 187 -365 240 -551 252
-54 3 -100 -1 -161 -14z"/>
<path d="M3390 4572 c-29 -15 -46 -40 -102 -148 l-66 -129 -224 -5 c-218 -5
-224 -6 -274 -32 -56 -30 -102 -77 -136 -141 l-23 -42 0 -610 0 -610 27 -50
c33 -63 90 -118 148 -144 44 -20 61 -21 1100 -21 1011 0 1057 1 1096 19 59 27
121 86 152 145 l27 51 0 610 0 610 -23 42 c-34 64 -80 111 -136 141 -50 27
-54 27 -274 30 l-223 3 -64 129 c-93 186 -42 170 -551 170 -386 0 -422 -1
-454 -18z m800 -409 c40 -79 76 -135 93 -148 27 -19 45 -20 283 -23 l254 -3 0
-524 0 -525 -980 0 -980 0 0 525 0 524 254 3 c238 3 256 4 283 23 17 13 53 69
93 148 l65 127 285 0 285 0 65 -127z"/>
<path d="M3720 3974 c-69 -19 -131 -55 -193 -113 -121 -113 -167 -292 -117
-452 38 -124 118 -216 240 -277 73 -36 76 -37 190 -37 114 0 118 1 191 37 85
42 163 115 204 189 97 180 63 404 -82 540 -122 114 -277 155 -433 113z m194
-307 c122 -70 88 -255 -51 -274 -90 -12 -162 45 -170 135 -8 85 62 162 147
162 19 0 53 -10 74 -23z"/>
</g>
</svg>
