<?xml version="1.0" encoding="utf-8"?>
<svg viewBox="502.581 9.894 185.392 551.445" xmlns="http://www.w3.org/2000/svg">
  <path d="M 376.929 209.233 C 369.832 205.931 361.118 204.849 353.897 207.917 C 346.676 210.985 341.753 218.849 344.088 225.808 C 345.146 228.963 347.558 232.066 346.618 235.253 C 345.895 237.706 343.373 239.325 340.896 240.477 C 338.418 241.628 335.709 242.596 333.917 244.538 C 332.126 246.48 331.752 249.823 333.99 251.33 C 334.727 251.826 335.649 252.061 336.364 252.584 C 337.613 253.599 338.08 255.294 337.528 256.806 C 336.932 258.29 335.947 259.586 334.677 260.557 C 332.137 262.748 328.779 265.255 329.568 268.365 C 330.162 270.052 331.542 271.343 333.265 271.823 C 335.028 272.332 336.857 272.573 338.692 272.54 L 413.658 274.901 C 416.133 275.087 418.621 274.948 421.06 274.488 C 423.456 274.051 425.562 272.636 426.873 270.583 C 428.308 267.925 427.366 264.652 425.593 262.171 C 423.82 259.69 421.311 257.732 419.238 255.454 C 417.164 253.175 415.468 250.331 415.834 247.386 C 416.126 245.029 417.681 242.992 418.797 240.85 C 419.913 238.708 420.561 236.031 419.116 234.061 C 417.079 231.284 412.189 231.535 409.873 228.948 C 408.125 226.995 408.463 224.184 408.289 221.667 C 407.871 215.61 403.678 209.89 397.709 207.234 C 391.551 204.591 384.498 205.071 378.755 208.525 Z" fill="#2f2e41" transform="matrix(1, 0, 0, 1, 259.615601, -72.259544)"/>
  <polygon points="329.556 589.388 317.815 585.86 325.834 538.893 343.163 544.1 329.556 589.388" fill="#a0616a" transform="matrix(1, 0, 0, 1, 259.615601, -72.259544)"/>
  <path d="M 329.131 601.668 L 291.273 590.294 L 291.417 589.815 C 293.861 581.676 302.441 577.061 310.579 579.506 L 310.58 579.506 L 333.703 586.454 Z" fill="#2f2e41" transform="matrix(1, 0, 0, 1, 259.615601, -72.259544)"/>
  <polygon points="440.353 589.785 428.093 589.784 422.261 542.495 440.355 542.497 440.353 589.785" fill="#a0616a" transform="matrix(1, 0, 0, 1, 259.615601, -72.259544)"/>
  <path d="M 443.479 601.668 L 403.949 601.667 L 403.949 601.167 C 403.949 592.669 410.838 585.781 419.335 585.781 L 419.336 585.781 L 443.48 585.782 Z" fill="#2f2e41" transform="matrix(1, 0, 0, 1, 259.615601, -72.259544)"/>
  <path d="M 423.335 554.018 C 421.125 554.017 419.243 552.412 418.893 550.23 L 400.69 436.676 C 400.263 434.015 397.116 432.814 395.026 434.514 C 394.576 434.88 394.224 435.351 394.002 435.886 L 346.84 549.423 C 345.929 551.596 343.5 552.704 341.262 551.967 L 324.227 546.288 C 322.029 545.562 320.744 543.283 321.261 541.027 L 359.91 370.006 C 360.296 368.325 361.603 367.01 363.282 366.614 L 415.114 354.582 C 416.403 354.289 417.756 354.57 418.822 355.351 C 452.952 380.15 450.069 461.173 443.708 549.149 C 443.544 551.429 441.697 553.224 439.414 553.323 L 423.532 554.014 C 423.466 554.016 423.4 554.018 423.335 554.018 Z" fill="#2f2e41" transform="matrix(1, 0, 0, 1, 259.615601, -72.259544)"/>
  <circle cx="379.703" cy="249.759" r="24.561" fill="#a0616a" transform="matrix(1, 0, 0, 1, 259.615601, -72.259544)"/>
  <path d="M 380.763 377.056 C 374.867 377.019 369.053 375.675 363.739 373.122 L 363.557 373.037 L 363.484 372.848 L 341.455 315.772 L 341.036 305.855 C 340.441 291.813 352.094 280.323 366.126 281.115 L 389.514 282.432 C 402.053 283.145 411.877 293.483 411.951 306.043 C 412.558 307.21 416.872 316.335 408.418 324.908 C 408.102 326.86 405.144 347.155 416.304 358.315 L 416.618 358.629 L 416.344 358.977 C 416.166 359.204 401.834 377.053 380.763 377.056 Z" fill="#3f3d56" transform="matrix(1, 0, 0, 1, 259.615601, -72.259544)"/>
  <path d="M 413.605 381.362 C 419.49 379.228 422.016 372.293 418.882 366.874 L 442.241 339.831 L 423.826 337.434 L 404.468 363.482 C 398.003 367.816 398.654 377.522 405.639 380.954 C 408.127 382.176 411.006 382.323 413.605 381.362 Z" fill="#a0616a" transform="matrix(1, 0, 0, 1, 259.615601, -72.259544)"/>
  <path d="M 428.21 360.489 C 427.332 360.489 426.474 360.232 425.741 359.749 L 414.188 352.172 C 412.169 350.853 411.552 348.176 412.789 346.107 L 421.153 332.055 C 423.071 328.833 421.751 324.658 418.329 323.124 L 394.301 312.351 C 388.215 309.589 384.849 302.984 386.189 296.436 L 386.189 296.436 C 388.115 287.241 398.26 282.398 406.621 286.682 L 443.073 305.361 C 453.526 310.717 456.751 324.126 449.878 333.65 L 431.858 358.62 C 431.014 359.794 429.656 360.49 428.21 360.489 Z" fill="#3f3d56" transform="matrix(1, 0, 0, 1, 259.615601, -72.259544)"/>
  <path d="M 354.576 246.267 C 362.332 245.645 368.772 237.896 367.966 230.156 C 367.778 236.76 372.569 242.456 379.107 243.402 C 382.665 243.794 386.565 242.718 389.662 244.513 C 393.092 246.501 394.19 251.328 397.763 253.046 C 401.216 254.705 405.601 252.442 407.307 249.012 C 409.012 245.583 408.594 241.462 407.463 237.802 C 400.416 214.988 371.609 207.894 354.774 224.827 C 351.512 228.108 348.923 232.288 348.503 236.895 C 348.083 241.502 350.22 246.501 354.357 248.57 Z" fill="#2f2e41" transform="matrix(1, 0, 0, 1, 259.615601, -72.259544)"/>
  <path d="M 297.435 178.233 C 302.946 181.203 304.432 188.433 300.54 193.336 L 319.699 223.501 L 301.132 223.183 L 285.785 194.587 C 280.022 189.355 282.084 179.848 289.496 177.473 C 292.134 176.627 295.005 176.902 297.435 178.233 Z" fill="#a0616a" transform="matrix(1, 0, 0, 1, 259.615601, -72.259544)"/>
  <path d="M 312.878 199.713 L 337.551 258.014 L 363.42 301.878 C 368.093 309.802 364.106 320.009 355.3 322.668 L 355.3 322.668 C 348.556 324.67 341.36 321.457 338.349 315.099 L 288.492 208.567 C 287.343 206.111 288.61 203.205 291.191 202.376 L 307.357 197.183 C 307.664 197.084 307.979 197.018 308.3 196.985 C 310.26 196.787 312.119 197.895 312.878 199.713 Z" fill="#3f3d56" transform="matrix(1, 0, 0, 1, 259.615601, -72.259544)"/>
  <path d="M 544.171 602.501 L -211.829 602.501 C -212.599 602.501 -213.08 601.668 -212.695 601.001 C -212.516 600.692 -212.186 600.501 -211.829 600.501 L 544.171 600.501 C 544.941 600.501 545.422 601.334 545.037 602.001 C 544.859 602.311 544.528 602.501 544.171 602.501 Z" fill="#ccc" transform="matrix(1, 0, 0, 1, 259.615601, -72.259544)"/>
  <path d="M 385.029 75.501 L 385.029 157.501 C 385.029 158.271 384.196 158.752 383.529 158.367 C 383.22 158.189 383.029 157.858 383.029 157.501 L 383.029 75.501 C 383.029 74.731 383.863 74.25 384.529 74.635 C 384.839 74.814 385.029 75.144 385.029 75.501 Z" fill="#ccc" transform="matrix(1, 0, 0, 1, 259.615601, -72.259544)"/>
  <path d="M 296.204 145.066 L 324.488 173.35 C 325.032 173.895 325.962 173.646 326.161 172.902 C 326.254 172.557 326.155 172.189 325.902 171.936 L 297.618 143.652 C 297.075 143.106 296.145 143.353 295.944 144.096 C 295.85 144.443 295.949 144.813 296.204 145.066 Z" fill="#ccc" transform="matrix(1, 0, 0, 1, 259.615601, -72.259544)"/>
</svg>