<?xml version="1.0" encoding="utf-8"?>
<svg viewBox="261.455 81.665 155.712 545.509" xmlns="http://www.w3.org/2000/svg">
  <polygon points="419.28 560.144 416.488 576.601 405.315 576.601 408.113 553.563 419.28 560.144" fill="#fdb797" style="" transform="matrix(1, 0, 0, 1, -84.816971, 27.544621)"/>
  <polygon points="419.052 562.416 418.268 565.198 407.251 561.491 408.035 559.635 419.052 562.416" opacity="0.1" style="" transform="matrix(1, 0, 0, 1, -84.816971, 27.544621)"/>
  <polygon points="346.686 560.144 349.478 576.601 360.645 576.601 357.854 553.563 346.686 560.144" fill="#fdb797" style="" transform="matrix(1, 0, 0, 1, -84.816971, 27.544621)"/>
  <polygon points="346.644 562.416 347.429 566.123 358.452 561.491 358.452 559.635 346.644 562.416" opacity="0.1" style="" transform="matrix(1, 0, 0, 1, -84.816971, 27.544621)"/>
  <path d="M 442.915 112.295 C 442.915 112.295 442.604 95.802 432.773 86.721 C 422.941 77.641 430.298 119.335 430.298 119.335 Z" fill="#fdb797" style="" transform="matrix(1, 0, 0, 1, -84.816971, 27.544621)"/>
  <path d="M 360.645 573.311 L 346.686 573.311 L 343.894 583.196 C 343.894 583.196 329.624 582.829 329.935 586.486 C 330.246 590.144 338 596.371 357.854 589.777 L 363.437 583.196 C 363.437 583.196 366.23 579.892 360.645 573.311 Z" fill="#333" style="" transform="matrix(1, 0, 0, 1, -84.816971, 27.544621)"/>
  <path d="M 405.315 573.311 L 419.275 573.311 L 422.066 583.196 C 422.066 583.196 436.337 582.829 436.026 586.486 C 435.713 590.144 427.961 596.371 408.107 589.777 L 402.524 583.196 C 402.524 583.196 399.732 579.892 405.315 573.311 Z" fill="#333" style="" transform="matrix(1, 0, 0, 1, -84.816971, 27.544621)"/>
  <path d="M 422.054 349.55 L 343.894 349.55 C 318.456 428.524 321.56 464.724 321.56 464.724 L 343.894 563.44 L 360.67 560.15 L 343.894 461.455 C 357.854 447.927 382.986 395.642 382.986 395.642 C 382.986 395.642 408.107 447.899 422.054 461.455 L 405.28 560.171 L 422.054 563.461 L 444.389 464.745 C 444.389 464.745 447.51 428.524 422.054 349.55 Z" fill="#333" style="" transform="matrix(1, 0, 0, 1, -84.816971, 27.544621)"/>
  <path d="M 343.894 350.828 C 343.894 350.828 388.229 370.598 422.073 350.828 L 343.894 350.828 Z" opacity="0.1" style="" transform="matrix(1, 0, 0, 1, -84.816971, 27.544621)"/>
  <path d="M 341.427 231.41 L 319.091 257.732 L 327.479 310.384 L 316.311 320.269 L 296.768 251.166 C 296.768 251.166 290.874 238.372 299.56 231.396 L 333.068 191.905 C 333.068 191.905 347.447 180.551 357.333 186.369 C 367.217 192.187 341.235 230.993 341.235 230.993" fill="#3ad29f" style="" transform="matrix(1, 0, 0, 1, -84.816971, 27.544621)"/>
  <path d="M 343.148 231.085 L 345.94 349.55 C 345.94 349.55 390.274 369.32 424.118 349.55 L 421.327 238.033 L 420.614 234.347 L 421.129 232.532 L 454.679 199.742 C 463.875 193.776 459.016 180.389 459.016 180.389 L 444.997 109.45 L 433.093 118.05 L 437.286 171.387 L 413.394 194.743 L 412.794 194.708 L 412.794 194.885 L 351.549 191.601" fill="#3ad29f" style="" transform="matrix(1, 0, 0, 1, -84.816971, 27.544621)"/>
  <rect x="371.968" y="175.326" width="22.334" height="29.613" rx="15.83" ry="15.83" fill="#fdb797" style="" transform="matrix(1, 0, 0, 1, -84.816971, 27.544621)"/>
  <path d="M 372.681 187.972 C 379.864 190.928 387.794 189.889 394.249 185.148 C 392.638 179.95 388.449 176.486 383.753 176.47 L 383.753 176.47 C 378.139 176.493 373.405 181.41 372.681 187.972 Z" opacity="0.1" style="" transform="matrix(1, 0, 0, 1, -84.816971, 27.544621)"/>
  <circle cx="293.59" cy="132.46" r="41.94" fill="#fdb797" transform="matrix(0.59911, 0, 0, 0.706072, 119.635513, 92.893616)" style=""/>
  <path d="M 362.892 142.544 C 361.331 142.776 359.748 142.67 358.22 142.233 C 356.718 141.59 355.365 140.546 354.265 139.183 C 350.982 135.469 348.537 130.512 348.22 125.16 C 347.902 119.808 350.018 114.138 353.954 111.483 C 359.465 107.784 366.493 110.707 371.807 114.788 C 376.379 118.318 381.836 122.844 386.749 120.041 C 388.361 119.123 389.606 117.506 391.074 116.299 C 396.747 111.603 405.196 113.919 409.826 119.999 C 414.458 126.078 415.758 134.876 414.961 142.995 C 414.164 151.115 411.528 158.79 409.107 166.444 C 408.73 167.954 408.092 169.356 407.233 170.56 C 404.285 174.126 398.766 171.358 396.826 166.938 C 393.453 159.249 396.826 145.919 388.858 141.435 C 382.513 137.876 369.704 142.021 362.892 142.544 Z" opacity="0.1" style="" transform="matrix(1, 0, 0, 1, -84.816971, 27.544621)"/>
  <path d="M 363.269 141.809 C 361.709 142.041 360.125 141.936 358.597 141.499 C 357.097 140.856 355.743 139.812 354.643 138.448 C 351.359 134.734 348.915 129.778 348.597 124.426 C 348.281 119.074 350.395 113.404 354.331 110.749 C 359.842 107.049 366.87 109.972 372.184 114.054 C 376.756 117.584 382.214 122.11 387.126 119.307 C 388.738 118.389 389.984 116.772 391.451 115.565 C 397.126 110.869 405.573 113.185 410.204 119.264 C 414.835 125.344 416.135 134.141 415.338 142.261 C 414.542 150.381 411.869 158.056 409.473 165.71 C 409.096 167.22 408.458 168.622 407.598 169.826 C 404.651 173.392 399.132 170.624 397.191 166.204 C 393.818 158.515 397.191 145.184 389.224 140.701 C 382.909 137.142 370.075 141.294 363.269 141.809 Z" fill="#333" style="" transform="matrix(1, 0, 0, 1, -84.816971, 27.544621)"/>
  <ellipse cx="394.304" cy="158.875" rx="2.792" ry="6.581" fill="#fdb797" style="" transform="matrix(1, 0, 0, 1, -84.816971, 27.544621)"/>
  <polygon points="341.133 231.071 348.22 234.983 341.133 245.192 341.133 231.071" opacity="0.1" style="" transform="matrix(1, 0, 0, 1, -84.816971, 27.544621)"/>
  <polygon points="419.052 232.511 414.332 238.696 417.477 244.26 419.317 238.075 419.052 232.511" opacity="0.1" style="" transform="matrix(1, 0, 0, 1, -84.816971, 27.544621)"/>
  <path d="M 505.683 82.457 C 504.499 81.849 503.889 80.292 504.264 78.835 C 504.294 78.727 504.312 78.616 504.317 78.503 L 504.317 78.503 C 504.379 77.347 503.356 76.547 502.476 77.063 C 502.297 77.167 502.143 77.32 502.024 77.507 L 502.024 77.507 C 501.966 77.599 501.917 77.698 501.88 77.804 C 501.362 79.194 500.045 79.909 498.813 79.47 C 498.721 79.436 498.626 79.414 498.531 79.407 L 498.531 79.407 C 497.55 79.335 496.871 80.541 497.309 81.577 C 497.398 81.787 497.526 81.97 497.686 82.111 L 497.686 82.111 C 497.763 82.179 497.848 82.236 497.937 82.28 C 499.112 82.896 499.713 84.446 499.339 85.895 C 499.31 86.003 499.292 86.114 499.285 86.227 L 499.285 86.227 C 499.225 87.383 500.248 88.183 501.128 87.667 C 501.306 87.563 501.461 87.41 501.58 87.223 L 501.58 87.223 C 501.638 87.131 501.686 87.032 501.724 86.926 C 502.239 85.53 503.561 84.811 504.798 85.253 C 504.889 85.287 504.983 85.309 505.079 85.316 L 505.079 85.316 C 506.059 85.386 506.736 84.179 506.298 83.143 C 506.21 82.938 506.084 82.758 505.93 82.619 L 505.93 82.619 C 505.854 82.554 505.771 82.499 505.683 82.457 Z" fill="#4d8af0" opacity="0.5" style="" transform="matrix(1, 0, 0, 1, -84.816971, 27.544621)"/>
</svg>