<svg id="_x31_" height="512" viewBox="0 0 24 24" width="512" xmlns="http://www.w3.org/2000/svg"><path d="m11.5 4.58c-1.93 0-3.5-1.57-3.5-3.5 0-.235.023-.458.07-.683.03-.141.118-.262.244-.333.124-.072.273-.083.41-.037.427.15.826.319 1.219.516 1.049.519 2.066.518 3.115-.001.392-.196.79-.365 1.217-.514.135-.047.285-.035.41.037.126.07.215.192.244.333.048.224.071.447.071.682 0 1.93-1.57 3.5-3.5 3.5zm-2.497-3.372c.067 1.319 1.161 2.372 2.497 2.372s2.43-1.053 2.497-2.372c-.167.071-.33.147-.493.229-1.329.66-2.677.659-4.006.001-.164-.082-.328-.158-.495-.23z"/><path d="m15.45 24c-.979 0-1.824-.705-2.012-1.675l-.85-4.604c-.097-.534-.554-.921-1.088-.921s-.991.387-1.088.919l-.851 4.602c-.187.974-1.033 1.679-2.011 1.679-1.051 0-1.922-.795-2.027-1.85l-.329-3.138c-.128-1.139-.363-2.265-.701-3.343l-.648-2.048c-.561-1.762-.845-3.586-.845-5.421 0-1.764 1.422-3.2 3.17-3.2.513 0 .979.051 1.445.151.224.049.387.244.395.473.061 1.893 1.594 3.376 3.49 3.376s3.429-1.483 3.49-3.376c.008-.229.171-.424.395-.473.467-.1.932-.151 1.385-.151.916 0 1.715.334 2.308.94.594.607.922 1.41.922 2.26 0 1.834-.284 3.659-.844 5.421l-.649 2.049c-.337 1.076-.572 2.202-.7 3.345l-.329 3.137c-.106 1.053-.977 1.848-2.028 1.848zm-3.95-8.2c1.018 0 1.889.732 2.072 1.741l.849 4.599c.097.496.529.86 1.029.86.534 0 .979-.408 1.033-.95l.329-3.143c.135-1.209.384-2.398.74-3.537l.65-2.051c.529-1.665.798-3.387.798-5.119 0-.579-.232-1.147-.637-1.56-.404-.413-.948-.64-1.533-.64-.308 0-.593.021-.871.063-.272 2.238-2.158 3.937-4.459 3.937s-4.187-1.699-4.459-3.937c-.274-.042-.546-.063-.811-.063-1.256 0-2.23.987-2.23 2.2 0 1.732.269 3.454.797 5.119l.649 2.05c.357 1.14.606 2.329.741 3.535l.329 3.144c.055.544.5.952 1.034.952.5 0 .933-.364 1.029-.865l.85-4.596c.182-1.007 1.053-1.739 2.071-1.739z"/></svg>