<?xml version="1.0" encoding="UTF-8" standalone="no"?>
<svg
   xmlns:dc="http://purl.org/dc/elements/1.1/"
   xmlns:cc="http://creativecommons.org/ns#"
   xmlns:rdf="http://www.w3.org/1999/02/22-rdf-syntax-ns#"
   xmlns:svg="http://www.w3.org/2000/svg"
   xmlns="http://www.w3.org/2000/svg"
   xmlns:sodipodi="http://sodipodi.sourceforge.net/DTD/sodipodi-0.dtd"
   xmlns:inkscape="http://www.inkscape.org/namespaces/inkscape"
   version="1.1"
   id="svg2"
   xml:space="preserve"
   width="666.66669"
   height="496.81332"
   viewBox="0 0 666.66669 496.81332"
   sodipodi:docname="3129491.eps"><metadata
     id="metadata8"><rdf:RDF><cc:Work
         rdf:about=""><dc:format>image/svg+xml</dc:format><dc:type
           rdf:resource="http://purl.org/dc/dcmitype/StillImage" /></cc:Work></rdf:RDF></metadata><defs
     id="defs6" /><sodipodi:namedview
     pagecolor="#ffffff"
     bordercolor="#666666"
     borderopacity="1"
     objecttolerance="10"
     gridtolerance="10"
     guidetolerance="10"
     inkscape:pageopacity="0"
     inkscape:pageshadow="2"
     inkscape:window-width="640"
     inkscape:window-height="480"
     id="namedview4" /><g
     id="g10"
     inkscape:groupmode="layer"
     inkscape:label="ink_ext_XXXXXX"
     transform="matrix(1.3333333,0,0,-1.3333333,0,496.81333)"><g
       id="g12"
       transform="scale(0.1)"><path
         d="m 0,449.129 h 5000 v 2.5 H 0 Z"
         style="fill:#e7e8e5;fill-opacity:1;fill-rule:nonzero;stroke:none"
         id="path14" /><path
         d="m 439.152,3723.59 c -30.101,0 -54.582,-24.48 -54.582,-54.57 V 954.699 c 0,-30.097 24.481,-54.578 54.582,-54.578 H 2370.14 c 30.08,0 54.57,24.481 54.57,54.578 V 3669.02 c 0,30.09 -24.49,54.57 -54.57,54.57 H 439.152 M 2370.14,897.621 H 439.152 c -31.476,0 -57.082,25.598 -57.082,57.078 V 3669.02 c 0,31.46 25.606,57.07 57.082,57.07 H 2370.14 c 31.46,0 57.07,-25.61 57.07,-57.07 V 954.699 c 0,-31.48 -25.61,-57.078 -57.07,-57.078"
         style="fill:#e7e8e5;fill-opacity:1;fill-rule:nonzero;stroke:none"
         id="path16" /><path
         d="m 2602.12,3723.59 c -30.09,0 -54.57,-24.48 -54.57,-54.57 V 954.699 c 0,-30.097 24.48,-54.578 54.57,-54.578 h 1930.99 c 30.09,0 54.58,24.481 54.58,54.578 V 3669.02 c 0,30.09 -24.49,54.57 -54.58,54.57 H 2602.12 M 4533.11,897.621 H 2602.12 c -31.47,0 -57.07,25.598 -57.07,57.078 V 3669.02 c 0,31.46 25.6,57.07 57.07,57.07 h 1930.99 c 31.47,0 57.08,-25.61 57.08,-57.07 V 954.699 c 0,-31.48 -25.61,-57.078 -57.08,-57.078"
         style="fill:#e7e8e5;fill-opacity:1;fill-rule:nonzero;stroke:none"
         id="path18" /><path
         d="m 1744.38,353.898 h 259.97 v 2.5 h -259.97 v -2.5"
         style="fill:#e7e8e5;fill-opacity:1;fill-rule:nonzero;stroke:none"
         id="path20" /><path
         d="m 524.59,381.031 h 541.02 v 2.5 H 524.59 v -2.5"
         style="fill:#e7e8e5;fill-opacity:1;fill-rule:nonzero;stroke:none"
         id="path22" /><path
         d="m 1471.19,261.039 h 263.18 v 2.5 h -263.18 v -2.5"
         style="fill:#e7e8e5;fill-opacity:1;fill-rule:nonzero;stroke:none"
         id="path24" /><path
         d="m 2582.27,277.84 h 388.32 v 2.5 h -388.32 v -2.5"
         style="fill:#e7e8e5;fill-opacity:1;fill-rule:nonzero;stroke:none"
         id="path26" /><path
         d="m 3059.62,277.84 h 106.94 v 2.5 h -106.94 v -2.5"
         style="fill:#e7e8e5;fill-opacity:1;fill-rule:nonzero;stroke:none"
         id="path28" /><path
         d="m 3953.46,320.059 h 545.55 v 2.5 h -545.55 v -2.5"
         style="fill:#e7e8e5;fill-opacity:1;fill-rule:nonzero;stroke:none"
         id="path30" /><path
         d="m 769.227,1797.29 h 1483.84 V 3363.11 H 769.227 Z"
         style="fill:#e2e2e0;fill-opacity:1;fill-rule:nonzero;stroke:none"
         id="path32" /><path
         d="M 2412.09,3413.79 H 673.18 c -8.137,0 -14.735,-6.6 -14.735,-14.74 0,-8.13 6.598,-14.73 14.735,-14.73 h 1738.91 c 8.13,0 14.73,6.6 14.73,14.73 0,8.14 -6.6,14.74 -14.73,14.74"
         style="fill:#e2e2e0;fill-opacity:1;fill-rule:nonzero;stroke:none"
         id="path34" /><path
         d="m 798.652,1797.29 h 1517.38 V 3363.11 H 798.652 Z"
         style="fill:#ededeb;fill-opacity:1;fill-rule:nonzero;stroke:none"
         id="path36" /><path
         d="m 769.227,1738.79 h 1483.84 v 58.5 H 769.227 Z"
         style="fill:#e2e2e0;fill-opacity:1;fill-rule:nonzero;stroke:none"
         id="path38" /><path
         d="m 903.547,1738.79 h 1517.38 v 58.5 H 903.547 Z"
         style="fill:#ededeb;fill-opacity:1;fill-rule:nonzero;stroke:none"
         id="path40" /><path
         d="m 886.797,1885.44 h 1341.09 V 3274.96 H 886.797 Z"
         style="fill:#fafaf9;fill-opacity:1;fill-rule:nonzero;stroke:none"
         id="path42" /><path
         d="m 1191.24,1885.44 517.35,1389.52 h 244.23 L 1435.46,1885.44 h -244.22"
         style="fill:#ffffff;fill-opacity:1;fill-rule:nonzero;stroke:none"
         id="path44" /><path
         d="m 1487.92,1885.44 517.36,1389.52 h 95.22 L 1583.13,1885.44 h -95.21"
         style="fill:#ffffff;fill-opacity:1;fill-rule:nonzero;stroke:none"
         id="path46" /><path
         d="m 2216.69,1885.44 h 11.1992 V 3274.96 H 2216.69 Z"
         style="fill:#e2e2e0;fill-opacity:1;fill-rule:nonzero;stroke:none"
         id="path48" /><path
         d="M 769.227,2025.82 H 664.07 l 96.461,1358.5 h 113.742 l -1.503,-21.21 H 769.227 V 2025.82 m 107.14,1387.97 H 762.625 l 1.871,26.35 H 950.82 878.238 l -1.871,-26.35"
         style="fill:#f4f4f2;fill-opacity:1;fill-rule:nonzero;stroke:none"
         id="path50" /><path
         d="m 777.816,2025.82 h -8.589 V 3363.11 H 872.77 798.652 V 2319.25 l -20.836,-293.43"
         style="fill:#e8e9e6;fill-opacity:1;fill-rule:nonzero;stroke:none"
         id="path52" /><path
         d="M 874.273,3384.32 H 760.531 l 2.094,29.47 h 113.742 l -2.094,-29.47"
         style="fill:#e8e9e6;fill-opacity:1;fill-rule:nonzero;stroke:none"
         id="path54" /><path
         d="M 798.652,2319.25 V 3363.11 H 872.77 L 798.652,2319.25"
         style="fill:#ededeb;fill-opacity:1;fill-rule:nonzero;stroke:none"
         id="path56" /><path
         d="m 798.652,2025.82 h -20.836 l 20.836,293.43 v -293.43"
         style="fill:#e2e2e0;fill-opacity:1;fill-rule:nonzero;stroke:none"
         id="path58" /><path
         d="M 945.352,3363.11 H 872.77 l 1.503,21.21 h 72.582 l -1.503,-21.21 m 3.597,50.68 h -72.582 l 1.871,26.35 h 72.582 72.58 -72.58 l -1.871,-26.35"
         style="fill:#ededeb;fill-opacity:1;fill-rule:nonzero;stroke:none"
         id="path60" /><path
         d="m 946.855,3384.32 h -72.582 l 2.094,29.47 h 72.582 l -2.094,-29.47"
         style="fill:#e2e2e0;fill-opacity:1;fill-rule:nonzero;stroke:none"
         id="path62" /><path
         d="m 850.395,2025.82 h -51.743 v 293.43 l 74.118,1043.86 h 72.582 l -6.258,-88.15 h -52.297 v -736.5 l -36.402,-512.64"
         style="fill:#e6e6e4;fill-opacity:1;fill-rule:nonzero;stroke:none"
         id="path64" /><path
         d="m 886.797,2538.46 v 736.5 h 52.297 l -52.297,-736.5"
         style="fill:#ebebe8;fill-opacity:1;fill-rule:nonzero;stroke:none"
         id="path66" /><path
         d="M 1059.09,3363.11 H 945.352 l 1.503,21.21 H 1060.6 l -1.51,-21.21 m 3.6,50.68 H 948.949 l 1.871,26.35 h 72.58 113.74 -72.58 l -1.87,-26.35"
         style="fill:#f4f4f2;fill-opacity:1;fill-rule:nonzero;stroke:none"
         id="path68" /><path
         d="M 1060.6,3384.32 H 946.855 l 2.094,29.47 h 113.741 l -2.09,-29.47"
         style="fill:#e8e9e6;fill-opacity:1;fill-rule:nonzero;stroke:none"
         id="path70" /><path
         d="m 886.797,2025.82 h -36.402 l 36.402,512.64 V 2025.82 M 1052.83,3274.96 H 939.094 l 6.258,88.15 h 113.738 l -6.26,-88.15"
         style="fill:#ededeb;fill-opacity:1;fill-rule:nonzero;stroke:none"
         id="path72" /><path
         d="m 964.141,2025.82 h -77.344 v 512.64 l 52.297,736.5 h 113.736 l -11.81,-166.31 c -26.07,-12.65 -43.594,-39.72 -42.579,-70.89 l 11.829,-362.31 -46.129,-649.63"
         style="fill:#f1f1f0;fill-opacity:1;fill-rule:nonzero;stroke:none"
         id="path74" /><path
         d="m 1131.67,3363.11 h -72.58 l 1.51,21.21 h 72.58 l -1.51,-21.21 m 3.6,50.68 h -72.58 l 1.87,26.35 h 72.58 72.58 -72.58 l -1.87,-26.35"
         style="fill:#ededeb;fill-opacity:1;fill-rule:nonzero;stroke:none"
         id="path76" /><path
         d="m 1133.18,3384.32 h -72.58 l 2.09,29.47 h 72.58 l -2.09,-29.47"
         style="fill:#e2e2e0;fill-opacity:1;fill-rule:nonzero;stroke:none"
         id="path78" /><path
         d="m 1125.41,3274.96 h -72.58 l 6.26,88.15 h 72.58 l -6.26,-88.15"
         style="fill:#e6e6e4;fill-opacity:1;fill-rule:nonzero;stroke:none"
         id="path80" /><path
         d="m 1031.46,2025.82 h -67.319 l 46.129,649.63 21.19,-649.63 m 9.56,1082.83 11.81,166.31 h 72.58 l -11.26,-158.71 h -39.78 c -12,0 -23.31,-2.73 -33.35,-7.6"
         style="fill:#ebebe8;fill-opacity:1;fill-rule:nonzero;stroke:none"
         id="path82" /><path
         d="m 1318,3363.11 h -186.33 l 1.51,21.21 h 186.32 l -1.5,-21.21 m 3.59,50.68 h -186.32 l 1.87,26.35 h 72.58 113.75 l -1.88,-26.35"
         style="fill:#f4f4f2;fill-opacity:1;fill-rule:nonzero;stroke:none"
         id="path84" /><path
         d="m 1319.5,3384.32 h -186.32 l 2.09,29.47 h 186.32 l -2.09,-29.47"
         style="fill:#e8e9e6;fill-opacity:1;fill-rule:nonzero;stroke:none"
         id="path86" /><path
         d="m 1311.74,3274.96 h -186.33 l 6.26,88.15 H 1318 l -6.26,-88.15"
         style="fill:#ededeb;fill-opacity:1;fill-rule:nonzero;stroke:none"
         id="path88" /><path
         d="m 1300.47,3116.25 h -186.32 l 11.26,158.71 h 186.33 l -11.27,-158.71"
         style="fill:#f1f1f0;fill-opacity:1;fill-rule:nonzero;stroke:none"
         id="path90" /><path
         d="m 2346.86,3116.25 h -30.83 v 246.86 h -43.36 l -0.85,21.21 h 64.28 l 10.76,-268.07 m -11.94,297.54 h -64.28 l -1.06,26.35 h -41.02 105.3 l 1.06,-26.35"
         style="fill:#f4f4f2;fill-opacity:1;fill-rule:nonzero;stroke:none"
         id="path92" /><path
         d="m 2336.1,3384.32 h -64.28 l -1.18,29.47 h 64.28 l 1.18,-29.47"
         style="fill:#e8e9e6;fill-opacity:1;fill-rule:nonzero;stroke:none"
         id="path94" /><path
         d="m 2316.03,3116.25 h -33.45 l -9.91,246.86 h 43.36 v -246.86"
         style="fill:#ededeb;fill-opacity:1;fill-rule:nonzero;stroke:none"
         id="path96" /><path
         d="m 2272.67,3363.11 h -41.02 l -0.85,21.21 h 41.02 l 0.85,-21.21 m -2.03,50.68 h -41.02 l -1.06,26.35 h -41.02 41.02 41.02 l 1.06,-26.35"
         style="fill:#ededeb;fill-opacity:1;fill-rule:nonzero;stroke:none"
         id="path98" /><path
         d="m 2271.82,3384.32 h -41.02 l -1.18,29.47 h 41.02 l 1.18,-29.47"
         style="fill:#e2e2e0;fill-opacity:1;fill-rule:nonzero;stroke:none"
         id="path100" /><path
         d="m 2282.58,3116.25 h -41.02 l -9.91,246.86 h 41.02 l 9.91,-246.86"
         style="fill:#e6e6e4;fill-opacity:1;fill-rule:nonzero;stroke:none"
         id="path102" /><path
         d="m 2231.65,3363.11 h -64.28 l -0.85,21.21 h 64.28 l 0.85,-21.21 m -2.03,50.68 h -64.28 l -1.06,26.35 h -41.01 64.27 41.02 l 1.06,-26.35"
         style="fill:#f4f4f2;fill-opacity:1;fill-rule:nonzero;stroke:none"
         id="path104" /><path
         d="m 2230.8,3384.32 h -64.28 l -1.18,29.47 h 64.28 l 1.18,-29.47"
         style="fill:#e8e9e6;fill-opacity:1;fill-rule:nonzero;stroke:none"
         id="path106" /><path
         d="m 2241.56,3116.25 h -13.67 v 158.71 h -56.98 l -3.54,88.15 h 64.28 l 9.91,-246.86"
         style="fill:#ededeb;fill-opacity:1;fill-rule:nonzero;stroke:none"
         id="path108" /><path
         d="m 2216.69,3116.25 h -39.41 l -6.37,158.71 h 56.98 -11.2 v -158.71"
         style="fill:#f1f1f0;fill-opacity:1;fill-rule:nonzero;stroke:none"
         id="path110" /><path
         d="m 2216.69,3116.25 h 11.1992 v 158.711 H 2216.69 Z"
         style="fill:#e8e9e6;fill-opacity:1;fill-rule:nonzero;stroke:none"
         id="path112" /><path
         d="m 2167.37,3363.11 h -41.01 l -0.85,21.21 h 41.01 l 0.85,-21.21 m -2.03,50.68 h -41.02 l -1.05,26.35 h -41.02 41.02 41.01 l 1.06,-26.35"
         style="fill:#ededeb;fill-opacity:1;fill-rule:nonzero;stroke:none"
         id="path114" /><path
         d="m 2166.52,3384.32 h -41.01 l -1.19,29.47 h 41.02 l 1.18,-29.47"
         style="fill:#e2e2e0;fill-opacity:1;fill-rule:nonzero;stroke:none"
         id="path116" /><path
         d="m 2170.91,3274.96 h -41.02 l -3.53,88.15 h 41.01 l 3.54,-88.15"
         style="fill:#e6e6e4;fill-opacity:1;fill-rule:nonzero;stroke:none"
         id="path118" /><path
         d="m 2177.28,3116.25 h -41.02 l -6.37,158.71 h 41.02 l 6.37,-158.71"
         style="fill:#ebebe8;fill-opacity:1;fill-rule:nonzero;stroke:none"
         id="path120" /><path
         d="m 2126.36,3363.11 h -105.3 l -0.85,21.21 h 105.3 l 0.85,-21.21 m -2.04,50.68 h -105.29 l -1.06,26.35 h 64.28 41.02 l 1.05,-26.35"
         style="fill:#f4f4f2;fill-opacity:1;fill-rule:nonzero;stroke:none"
         id="path122" /><path
         d="m 2125.51,3384.32 h -105.3 l -1.18,29.47 h 105.29 l 1.19,-29.47"
         style="fill:#e8e9e6;fill-opacity:1;fill-rule:nonzero;stroke:none"
         id="path124" /><path
         d="M 2129.89,3274.96 H 2024.6 l -3.54,88.15 h 105.3 l 3.53,-88.15"
         style="fill:#ededeb;fill-opacity:1;fill-rule:nonzero;stroke:none"
         id="path126" /><path
         d="m 2136.26,3116.25 h -94.86 l 59.1,158.71 h -75.9 105.29 l 6.37,-158.71"
         style="fill:#f1f1f0;fill-opacity:1;fill-rule:nonzero;stroke:none"
         id="path128" /><path
         d="m 2041.4,3116.25 h -10.44 l -6.36,158.71 h 75.9 l -59.1,-158.71"
         style="fill:#f4f4f2;fill-opacity:1;fill-rule:nonzero;stroke:none"
         id="path130" /><path
         d="M 3240.48,2075.93 H 4266.55 V 3440.14 H 3240.48 Z"
         style="fill:#e2e2e0;fill-opacity:1;fill-rule:nonzero;stroke:none"
         id="path132" /><path
         d="M 3272.51,2075.93 H 4344.5 V 3440.14 H 3272.51 Z"
         style="fill:#f3f2f1;fill-opacity:1;fill-rule:nonzero;stroke:none"
         id="path134" /><path
         d="m 4300.95,3312.43 -889.5,71.91 -95.44,-1180.75 889.5,-71.9 95.44,1180.74"
         style="fill:#ffffff;fill-opacity:1;fill-rule:nonzero;stroke:none"
         id="path136" /><path
         d="m 4300.95,3312.43 -21.9,1.78 -95.45,-1180.75 21.91,-1.77 95.44,1180.74"
         style="fill:#e2e2e0;fill-opacity:1;fill-rule:nonzero;stroke:none"
         id="path138" /><path
         d="M 4401.04,451.641 H 3827.95 V 1566.36 h 573.09 V 451.641"
         style="fill:#f3f2f1;fill-opacity:1;fill-rule:nonzero;stroke:none"
         id="path140" /><path
         d="m 4401.04,451.641 h -47.26 V 1566.36 h 47.26 V 451.641"
         style="fill:#ededeb;fill-opacity:1;fill-rule:nonzero;stroke:none"
         id="path142" /><path
         d="m 2552.54,1062.88 h 1319.58 v 471.672 H 2552.54 Z"
         style="fill:#e2e2e0;fill-opacity:1;fill-rule:nonzero;stroke:none"
         id="path144" /><path
         d="m 2616.16,1482.74 h 1784.88 v 83.6211 H 2616.16 Z"
         style="fill:#ededeb;fill-opacity:1;fill-rule:nonzero;stroke:none"
         id="path146" /><path
         d="M 2616.16,451.641 H 2043.08 V 1566.36 h 573.08 V 451.641"
         style="fill:#f3f2f1;fill-opacity:1;fill-rule:nonzero;stroke:none"
         id="path148" /><path
         d="M 2204.29,451.629 H 1925.9 v 621.641 c 0,76.16 61.74,137.9 137.9,137.9 h 2.59 c 76.16,0 137.9,-61.74 137.9,-137.9 V 451.629"
         style="fill:#e2e2e0;fill-opacity:1;fill-rule:nonzero;stroke:none"
         id="path150" /><path
         d="M 2616.16,451.641 H 2568.9 V 1566.36 h 47.26 V 451.641"
         style="fill:#ededeb;fill-opacity:1;fill-rule:nonzero;stroke:none"
         id="path152" /><path
         d="m 3261.21,1566.36 h -123.64 l 30.08,240.64 h 123.64 l -30.08,-240.64"
         style="fill:#ededeb;fill-opacity:1;fill-rule:nonzero;stroke:none"
         id="path154" /><path
         d="m 3288.55,1566.36 h -123.64 l 30.08,240.64 h 123.64 l -30.08,-240.64"
         style="fill:#f3f2f1;fill-opacity:1;fill-rule:nonzero;stroke:none"
         id="path156" /><path
         d="m 3303.59,1686.68 h -123.64 l 15.04,120.32 h 123.64 l -15.04,-120.32"
         style="fill:#ededeb;fill-opacity:1;fill-rule:nonzero;stroke:none"
         id="path158" /><path
         d="m 2849.27,1715.48 h 874.6 c 7.3,0 12.94,6.39 12.03,13.63 l -67.39,539.22 c -0.76,6.06 -5.92,10.62 -12.04,10.62 h -874.6 c -7.29,0 -12.93,-6.39 -12.03,-13.63 l 67.4,-539.22 c 0.76,-6.06 5.92,-10.62 12.03,-10.62"
         style="fill:#ededeb;fill-opacity:1;fill-rule:nonzero;stroke:none"
         id="path160" /><path
         d="m 2862.27,1715.48 h 874.6 c 7.29,0 12.93,6.39 12.03,13.63 l -67.4,539.22 c -0.76,6.06 -5.91,10.62 -12.03,10.62 h -874.6 c -7.3,0 -12.94,-6.39 -12.03,-13.63 l 67.39,-539.22 c 0.76,-6.06 5.92,-10.62 12.04,-10.62"
         style="fill:#f3f2f1;fill-opacity:1;fill-rule:nonzero;stroke:none"
         id="path162" /><path
         d="m 3720.68,1745.28 -63.08,504.71 c -0.21,1.7 -1.65,2.97 -3.36,2.97 h -839.83 c -2.04,0 -3.62,-1.79 -3.37,-3.81 l 63.1,-504.71 c 0.21,-1.69 1.66,-2.97 3.37,-2.97 h 839.81 c 2.04,0 3.62,1.79 3.36,3.81"
         style="fill:#e2e2e0;fill-opacity:1;fill-rule:nonzero;stroke:none"
         id="path164" /><path
         d="m 3631.07,1741.46 -221.99,511.49 h -194.65 l 222,-511.49 h 194.64"
         style="fill:#e7e8e5;fill-opacity:1;fill-rule:nonzero;stroke:none"
         id="path166" /><path
         d="m 3398.95,1741.46 -222,511.49 h -70.15 l 222,-511.49 h 70.15"
         style="fill:#e7e8e5;fill-opacity:1;fill-rule:nonzero;stroke:none"
         id="path168" /><path
         d="m 3219.75,1588.91 h 161.27 c 11.07,0 20.05,-8.98 20.05,-20.06 v -2.49 h -201.38 v 2.49 c 0,11.08 8.98,20.06 20.06,20.06"
         style="fill:#f3f2f1;fill-opacity:1;fill-rule:nonzero;stroke:none"
         id="path170" /><path
         d="m 3106.44,1588.91 h 96.5 c 11.08,0 20.06,-8.98 20.06,-20.06 v -2.49 h -136.61 v 2.49 c 0,11.08 8.98,20.06 20.05,20.06"
         style="fill:#ededeb;fill-opacity:1;fill-rule:nonzero;stroke:none"
         id="path172" /><path
         d="m 3623.63,1566.34 h -622.64 l -16.84,49.98 h 558.47 l 81.01,-49.98"
         style="fill:#f3f2f1;fill-opacity:1;fill-rule:nonzero;stroke:none"
         id="path174" /><path
         d="m 3069.5,1566.34 h -102.86 l -13.92,49.98 h 102.86 l 13.92,-49.98"
         style="fill:#ededeb;fill-opacity:1;fill-rule:nonzero;stroke:none"
         id="path176" /><path
         d="m 2735.93,1608.16 h 93.62 c 23.08,0 41.8,-18.72 41.8,-41.8 h -177.22 c 0,23.08 18.72,41.8 41.8,41.8"
         style="fill:#ededeb;fill-opacity:1;fill-rule:nonzero;stroke:none"
         id="path178" /><path
         d="M 892.273,451.629 H 1065.97 V 1258.95 H 892.273 V 451.629"
         style="fill:#dadbd8;fill-opacity:1;fill-rule:nonzero;stroke:none"
         id="path180" /><path
         d="M 1663.44,451.629 H 961.191 l -86.828,953.991 h 702.247 l 86.83,-953.991"
         style="fill:#e2e2e0;fill-opacity:1;fill-rule:nonzero;stroke:none"
         id="path182" /><path
         d="M 1699.81,451.629 H 997.566 l -86.824,953.991 h 702.248 l 86.82,-953.991"
         style="fill:#ededeb;fill-opacity:1;fill-rule:nonzero;stroke:none"
         id="path184" /><path
         d="m 1093.55,557.238 -67.6,742.782 h 491.03 l 67.61,-742.782 h -491.04"
         style="fill:#ffffff;fill-opacity:1;fill-rule:nonzero;stroke:none"
         id="path186" /><path
         d="M 4438.89,113.238 C 4438.89,50.6992 3570.83,0 2500,0 1429.18,0 561.109,50.6992 561.109,113.238 c 0,62.532 868.071,113.231 1938.891,113.231 1070.83,0 1938.89,-50.699 1938.89,-113.231"
         style="fill:#f3f2f1;fill-opacity:1;fill-rule:nonzero;stroke:none"
         id="path188" /><path
         d="m 985.145,2372.12 -4.352,133.25 10,0.33 4.352,-133.25 -10,-0.33"
         style="fill:#406fbf;fill-opacity:1;fill-rule:nonzero;stroke:none"
         id="path190" /><path
         d="m 979.109,2556.98 -2.066,63.32 10,0.33 2.066,-63.32 -10,-0.33"
         style="fill:#406fbf;fill-opacity:1;fill-rule:nonzero;stroke:none"
         id="path192" /><path
         d="m 1121.99,1656.93 h 1908.62 c 43.17,0 77.34,35.32 75.93,78.49 l -42.5,1302.34 c -1.4,43.17 -37.88,78.49 -81.05,78.49 H 1074.37 c -43.17,0 -77.339,-35.32 -75.929,-78.49 l 42.499,-1302.34 c 1.4,-43.17 37.88,-78.49 81.05,-78.49"
         style="fill:#406fbf;fill-opacity:1;fill-rule:nonzero;stroke:none"
         id="path194" /><path
         d="m 1128.11,1656.93 h 1908.62 c 43.17,0 77.34,35.32 75.93,78.49 l -42.49,1302.34 c -1.42,43.17 -37.88,78.49 -81.05,78.49 H 1080.49 c -43.17,0 -77.34,-35.32 -75.93,-78.49 l 42.5,-1302.34 c 1.41,-43.17 37.88,-78.49 81.05,-78.49"
         style="fill:#406fbf;fill-opacity:1;fill-rule:nonzero;stroke:none"
         id="path196" /><path
         d="M 3036.73,1656.93 H 1128.11 c -43.17,0 -79.64,35.32 -81.05,78.49 l -42.5,1302.34 c -0.03,0.85 -0.04,1.69 -0.04,2.52 -0.03,42.02 33.64,75.97 75.97,75.97 h 1908.63 c 43.17,0 79.63,-35.32 81.05,-78.49 l 9.07,-278.23 -91.8,16.17 -3.61,110.68 c -0.52,15.71 -13.67,28.45 -29.38,28.45 H 1128.31 c -15.72,0 -28.05,-12.74 -27.53,-28.45 l 34.94,-1071.01 c 0.51,-15.72 13.67,-28.46 29.39,-28.46 h 1826.14 c 15.71,0 28.04,12.74 27.52,28.46 l -3.16,96.93 91.81,-16.17 5.24,-160.71 c 0.03,-0.84 0.04,-1.68 0.04,-2.52 0.01,-6 -0.68,-11.83 -1.97,-17.42 -7.79,-33.59 -37.71,-58.55 -74,-58.55 M 1075.65,3077.01 c -2.16,0 -4.3,-0.09 -6.41,-0.26 -48.94,-4.02 -41.9,-78.23 7.34,-78.23 h 1911.88 c 49.25,0 51.44,74.21 2.23,78.23 -2.12,0.17 -4.26,0.26 -6.42,0.26 H 1075.65"
         style="fill:#90b4e3;fill-opacity:1;fill-rule:nonzero;stroke:none"
         id="path198" /><path
         d="M 2988.46,2998.52 H 1076.58 c -49.24,0 -56.28,74.21 -7.34,78.23 2.11,0.17 4.25,0.26 6.41,0.26 h 1908.62 c 2.16,0 4.3,-0.09 6.42,-0.26 49.21,-4.02 47.02,-78.23 -2.23,-78.23"
         style="fill:#658fd2;fill-opacity:1;fill-rule:nonzero;stroke:none"
         id="path200" /><path
         d="m 1123.81,3037.76 c 0.33,-9.94 -7.47,-17.99 -17.4,-17.99 -9.94,0 -18.26,8.05 -18.59,17.99 -0.32,9.94 7.47,17.99 17.41,17.99 9.94,0 18.26,-8.05 18.58,-17.99"
         style="fill:#fafaf9;fill-opacity:1;fill-rule:nonzero;stroke:none"
         id="path202" /><path
         d="m 1185.02,3037.76 c 0.33,-9.94 -7.47,-17.99 -17.41,-17.99 -9.93,0 -18.25,8.05 -18.58,17.99 -0.32,9.94 7.47,17.99 17.41,17.99 9.94,0 18.26,-8.05 18.58,-17.99"
         style="fill:#fafaf9;fill-opacity:1;fill-rule:nonzero;stroke:none"
         id="path204" /><path
         d="m 1246.23,3037.76 c 0.32,-9.94 -7.47,-17.99 -17.41,-17.99 -9.94,0 -18.25,8.05 -18.58,17.99 -0.32,9.94 7.47,17.99 17.41,17.99 9.93,0 18.25,-8.05 18.58,-17.99"
         style="fill:#fafaf9;fill-opacity:1;fill-rule:nonzero;stroke:none"
         id="path206" /><path
         d="m 1165.11,1786.91 h 1826.14 c 15.71,0 28.04,12.74 27.52,28.46 l -34.94,1071.01 c -0.52,15.71 -13.67,28.45 -29.38,28.45 H 1128.31 c -15.72,0 -28.05,-12.74 -27.53,-28.45 l 34.94,-1071.01 c 0.51,-15.72 13.67,-28.46 29.39,-28.46"
         style="fill:#ffffff;fill-opacity:1;fill-rule:nonzero;stroke:none"
         id="path208" /><path
         d="m 2505.26,1919.45 h -33.33 v 9.49 h 23.55 l -0.76,23.53 9.47,0.31 1.07,-33.33"
         style="fill:#b8d2ef;fill-opacity:1;fill-rule:nonzero;stroke:none"
         id="path210" /><path
         d="m 2418.83,1919.45 h -53.1 v 9.49 h 53.1 v -9.49 m -106.19,0 h -53.11 v 9.49 h 53.11 v -9.49 m -106.2,0 h -53.1 v 9.49 h 53.1 v -9.49 m -106.2,0 h -53.09 v 9.49 h 53.09 v -9.49 m -106.19,0 h -53.1 v 9.49 h 53.1 v -9.49 m -106.2,0 h -53.09 v 9.49 h 53.09 v -9.49 m -106.19,0 h -53.1 v 9.49 h 53.1 v -9.49"
         style="fill:#b8d2ef;fill-opacity:1;fill-rule:nonzero;stroke:none"
         id="path212" /><path
         d="m 1675.47,1919.45 h -33.04 l -1.07,33.02 9.47,0.31 0.78,-23.84 h 23.86 v -9.49"
         style="fill:#b8d2ef;fill-opacity:1;fill-rule:nonzero;stroke:none"
         id="path214" /><path
         d="m 1639.63,2005.57 -1.73,53.1 9.47,0.31 1.73,-53.1 -9.47,-0.31 m -3.47,106.2 -1.73,53.1 9.48,0.31 1.72,-53.1 -9.47,-0.31 m -3.46,106.2 -1.73,53.1 9.47,0.31 1.73,-53.1 -9.47,-0.31 m -3.46,106.19 -1.74,53.1 9.47,0.32 1.74,-53.1 -9.47,-0.32 m -3.47,106.21 -1.74,53.09 9.48,0.32 1.73,-53.1 -9.47,-0.31 m -3.47,106.2 -1.72,53.09 9.47,0.31 1.73,-53.1 -9.48,-0.3 m -3.46,106.19 -1.73,53.1 9.47,0.31 1.73,-53.1 -9.47,-0.31"
         style="fill:#b8d2ef;fill-opacity:1;fill-rule:nonzero;stroke:none"
         id="path216" /><path
         d="m 1615.37,2748.96 -1.09,33.33 h 33.34 v -9.49 h -23.54 l 0.76,-23.53 -9.47,-0.31"
         style="fill:#b8d2ef;fill-opacity:1;fill-rule:nonzero;stroke:none"
         id="path218" /><path
         d="m 2390.99,2772.8 h -53.1 v 9.49 h 53.1 v -9.49 m -106.19,0 h -53.1 v 9.49 h 53.1 v -9.49 m -106.2,0 h -53.1 v 9.49 h 53.1 v -9.49 m -106.2,0 h -53.09 v 9.49 h 53.09 v -9.49 m -106.19,0 h -53.1 v 9.49 h 53.1 v -9.49 m -106.19,0 h -53.11 v 9.49 h 53.11 v -9.49 m -106.2,0 h -53.1 v 9.49 h 53.1 v -9.49"
         style="fill:#b8d2ef;fill-opacity:1;fill-rule:nonzero;stroke:none"
         id="path220" /><path
         d="m 2468.72,2748.96 -0.78,23.84 h -23.86 v 9.49 h 33.04 l 1.07,-33.02 -9.47,-0.31"
         style="fill:#b8d2ef;fill-opacity:1;fill-rule:nonzero;stroke:none"
         id="path222" /><path
         d="m 2492.98,2005.57 -1.73,53.1 9.47,0.31 1.73,-53.1 -9.47,-0.31 m -3.47,106.2 -1.73,53.1 9.48,0.3 1.72,-53.09 -9.47,-0.31 m -3.46,106.19 -1.73,53.1 9.47,0.32 1.74,-53.1 -9.48,-0.32 m -3.46,106.2 -1.74,53.1 9.47,0.32 1.74,-53.1 -9.47,-0.32 m -3.47,106.21 -1.73,53.09 9.48,0.31 1.72,-53.1 -9.47,-0.3 m -3.47,106.19 -1.72,53.1 9.47,0.31 1.73,-53.1 -9.48,-0.31 m -3.46,106.2 -1.73,53.1 9.47,0.31 1.73,-53.1 -9.47,-0.31"
         style="fill:#b8d2ef;fill-opacity:1;fill-rule:nonzero;stroke:none"
         id="path224" /><path
         d="m 2005.98,2534.41 c -53.69,0 -99.82,-37.97 -109.71,-90.29 l -1.68,-8.88 -9.02,-0.58 c -51.08,-3.29 -89.78,-46.1 -88.11,-97.45 1.78,-54.28 47.37,-98.44 101.65,-98.44 h 349.11 c 17.58,0 33.86,6.83 45.85,19.21 12.01,12.41 18.31,28.93 17.74,46.53 -0.9,27.39 -18.95,52.37 -44.92,62.15 l -7.21,2.72 -0.32,7.71 c -2.11,51.51 -45.74,93.41 -97.24,93.41 -12.08,0 -23.8,-2.28 -34.82,-6.79 l -9.83,-4.03 -4.91,9.42 c -21.01,40.28 -61.85,65.31 -106.58,65.31 z m 242.24,-318.95 h -349.11 c -66.72,0 -122.76,54.28 -124.95,120.99 -1.98,61.03 41.81,112.38 101.11,120.58 15.19,58.84 68.8,100.69 130.71,100.69 50.07,0 96.03,-26.18 122.22,-68.96 10.92,3.36 22.29,5.05 33.92,5.05 61.34,0 113.65,-47.94 119.99,-108.31 30.89,-14.7 51.88,-46.05 53,-80.23 0.78,-23.97 -7.84,-46.52 -24.28,-63.5 -16.43,-16.96 -38.66,-26.31 -62.61,-26.31"
         style="fill:#406fbf;fill-opacity:1;fill-rule:nonzero;stroke:none"
         id="path226" /><path
         d="m 2147.62,2328.82 -96.29,93.25 -90.21,-93.25 h 52.79 l 3.15,-96.41 h 80.92 l -3.15,96.41 h 52.79"
         style="fill:#406fbf;fill-opacity:1;fill-rule:nonzero;stroke:none"
         id="path228" /><path
         d="m 3669.45,2707.59 c 9.25,-13.24 16.63,-24.45 24.27,-36.88 7.61,-12.12 14.78,-24.42 21.75,-36.86 14.01,-24.83 27.03,-50.24 38.97,-76.43 11.88,-26.18 23.12,-52.89 32.4,-80.81 9.71,-27.61 17.62,-56.61 23.53,-86.52 l 3.88,-22.81 0.47,-2.84 0.53,-3.65 c 0.39,-3.49 0.84,-6.5 0.99,-10.4 0.14,-3.85 0.31,-7.35 0.01,-11.78 l -0.45,-6.32 -1.06,-6.96 c -0.67,-4.42 -2.26,-9.81 -3.79,-14.58 -2,-5.21 -4.03,-10.19 -7.04,-15.22 -5.62,-10 -13.81,-18.92 -22.08,-25.24 -17.13,-13.06 -32.59,-16.8 -45.09,-19.17 -12.66,-2.13 -22.97,-2.08 -32.62,-1.65 -9.57,0.53 -18.29,1.58 -26.55,3.14 -16.44,3.09 -31.38,7.18 -45.71,11.73 -28.56,9.36 -54.9,20.54 -80.4,32.98 -25.6,12.52 -49.78,25.73 -74.13,41.37 l 28.75,63.82 c 50.55,-12.42 102.76,-26.05 150.83,-32.62 11.92,-1.71 23.53,-2.76 33.9,-2.87 9.99,-0.19 19.85,0.88 21.48,2.4 0.61,0.46 -1.65,1.17 -8.31,-3.23 -2.99,-2.13 -6.64,-5.86 -9.09,-9.9 -1.17,-2.18 -2.23,-3.9 -2.88,-6.01 -0.78,-1.49 -1.14,-3.69 -1.51,-4.73 l -0.6,-3.22 c -0.02,-1.05 -0.23,-1.19 -0.23,-1.67 l -0.24,-0.36 -0.39,1.33 -0.57,2.11 -4.5,16.81 c -13.39,45.06 -33.11,91.03 -56.17,135.91 -11.28,22.55 -23.67,44.83 -36.28,66.95 -6.28,11.08 -12.86,22.02 -19.35,32.92 -6.42,10.62 -13.45,22.24 -19.29,31.39 l 116.57,79.87"
         style="fill:#f89e63;fill-opacity:1;fill-rule:nonzero;stroke:none"
         id="path230" /><path
         d="m 3517.85,2397.51 -43.35,43.23 -43.15,-96.14 c 0,0 40.8,-22.64 77.19,-6.14 l 9.31,59.05"
         style="fill:#f89e63;fill-opacity:1;fill-rule:nonzero;stroke:none"
         id="path232" /><path
         d="m 3410.37,2475.17 -31.95,-81.13 52.93,-49.44 43.15,96.14 -64.13,34.43"
         style="fill:#f89e63;fill-opacity:1;fill-rule:nonzero;stroke:none"
         id="path234" /><path
         d="m 3410.13,1842.81 -832.6,146.67 146.67,832.59 832.6,-146.67 -146.67,-832.59"
         style="fill:#406fbf;fill-opacity:1;fill-rule:nonzero;stroke:none"
         id="path236" /><path
         d="m 3328.41,1857.2 -312.8,55.1 -438.08,77.18 146.67,832.59 792.88,-139.67 c -4.26,-20.3 -2.43,-43.96 7.77,-70.05 4.65,-12.01 9.57,-23.85 14.61,-35.4 l -42.73,-242.52 -1.23,-6.99 -51.5,-292.36 c -14.87,0 -28.96,0 -41.77,0 l 106.92,606.94 -751.57,132.4 -132.39,-751.57 704.55,-124.11 c -0.46,-13.16 -0.91,-27.04 -1.33,-41.54"
         style="fill:#a4c3e9;fill-opacity:1;fill-rule:nonzero;stroke:none"
         id="path238" /><path
         d="m 3376.75,1890.46 -751.56,132.39 132.39,751.57 751.57,-132.4 -132.4,-751.56"
         style="fill:#ffffff;fill-opacity:1;fill-rule:nonzero;stroke:none"
         id="path240" /><path
         d="m 3030.53,2365.07 c -8.11,0 -16.33,0.7 -24.6,2.16 -76.62,13.5 -127.8,86.55 -114.29,163.17 12.03,68.36 71.48,116.46 138.56,116.46 8.12,0 16.34,-0.7 24.61,-2.16 76.62,-13.5 127.8,-86.55 114.3,-163.18 -12.04,-68.35 -71.49,-116.45 -138.58,-116.45"
         style="fill:#b8d2ef;fill-opacity:1;fill-rule:nonzero;stroke:none"
         id="path242" /><path
         d="m 3329.74,1898.76 -704.51,124.11 23.58,133.84 190.07,133.13 115.85,-165.38 251.9,176.35 186.13,-265.73 c -33.99,0 -56.77,0 -56.77,0 0,0 -3.37,-54.1 -6.25,-136.32"
         style="fill:#cfe0f5;fill-opacity:1;fill-rule:nonzero;stroke:none"
         id="path244" /><path
         d="m 3247.94,3010.48 c 0.14,-6.66 -3.28,-12.12 -7.62,-12.21 -4.35,-0.09 -7.99,5.23 -8.13,11.88 -0.14,6.65 3.27,12.12 7.62,12.21 4.35,0.09 7.99,-5.23 8.13,-11.88"
         style="fill:#17282f;fill-opacity:1;fill-rule:nonzero;stroke:none"
         id="path246" /><path
         d="m 3245.27,2998.37 c 0,0 -14.32,-38.7 -30.59,-57.57 12,-10.73 31.91,-5.3 31.91,-5.3 l -1.32,62.87"
         style="fill:#f14358;fill-opacity:1;fill-rule:nonzero;stroke:none"
         id="path248" /><path
         d="m 3271.35,3047.89 c -0.97,-0.17 -2.02,0.03 -2.9,0.64 -14.2,9.79 -27.34,4.74 -27.89,4.51 -1.98,-0.81 -4.27,0.17 -5.08,2.16 -0.8,1.99 0.14,4.26 2.13,5.07 0.71,0.29 17.47,6.96 35.28,-5.31 1.77,-1.23 2.22,-3.66 1,-5.43 -0.62,-0.9 -1.55,-1.46 -2.54,-1.64"
         style="fill:#17282f;fill-opacity:1;fill-rule:nonzero;stroke:none"
         id="path250" /><path
         d="m 3440.69,2985.1 c -4.22,-61.37 0.61,-185.32 47.53,-220.01 0,0 -11.5,-50.05 -122.77,-64.03 -122.36,-15.37 -66.11,53.39 -66.11,53.39 64.78,24.34 56.83,73.67 39.35,118.74 l 102,111.91"
         style="fill:#f89e63;fill-opacity:1;fill-rule:nonzero;stroke:none"
         id="path252" /><path
         d="m 3775.15,346.301 c -9.27,0.738 -24.63,0.84 -30.24,-3.93 -1.3,-1.109 -1.97,-2.41 -2.01,-3.992 -0.11,-3.66 1.43,-4.387 1.94,-4.629 5.29,-2.551 20.29,5.078 30.31,12.551 z m -31.21,-16.41 -0.78,0.328 c -1.99,0.953 -4.32,3.152 -4.17,8.281 0.09,2.699 1.22,5.012 3.39,6.852 9.42,8.007 36.83,4.488 37.99,4.339 l 1.62,-1.382 -0.6,-2.039 c -6.4,-5.5 -27.6,-19.778 -37.45,-16.379"
         style="fill:#406fbf;fill-opacity:1;fill-rule:nonzero;stroke:none"
         id="path254" /><path
         d="m 3757.08,368.34 -1.36,0.379 c -2.09,0.461 -3.9,0.133 -5.53,-0.969 -2.12,-1.441 -1.79,-2.57 -1.65,-3.059 1.56,-5.312 17.15,-12.671 27.63,-14.55 -3.79,5.429 -11.7,15.648 -19.09,18.199 z m 9.2,-19.512 c -9.61,3.32 -19.79,8.953 -21.49,14.762 -0.47,1.629 -0.69,4.762 3.21,7.398 2.52,1.711 5.4,2.231 8.55,1.551 12.06,-2.547 24.7,-22.898 25.23,-23.758 l 0.03,-2 -1.75,-0.98 c -3.43,0.078 -8.52,1.211 -13.78,3.027"
         style="fill:#406fbf;fill-opacity:1;fill-rule:nonzero;stroke:none"
         id="path256" /><path
         d="m 3123.59,209.238 c -1.37,0 -2.64,-0.136 -3.78,-0.449 -1.8,-0.48 -3.05,-1.379 -3.82,-2.73 -1.39,-2.43 -0.88,-3.629 -0.38,-4.329 3.84,-5.32 24.7,-5.441 40.03,-3.281 -7.65,3.93 -22.4,10.789 -32.05,10.789 z m 13.08,-16 c -10.59,0 -20.81,1.461 -24.23,6.211 -1.2,1.672 -2.15,4.512 0.15,8.551 1.3,2.262 3.39,3.801 6.2,4.559 13.74,3.742 42.56,-12.688 43.78,-13.387 l 0.96,-2.012 -1.55,-1.601 c -5.26,-1.047 -15.45,-2.321 -25.31,-2.321"
         style="fill:#406fbf;fill-opacity:1;fill-rule:nonzero;stroke:none"
         id="path258" /><path
         d="m 3141.47,228.969 -1.17,-0.071 c -3.52,-0.347 -3.74,-1.738 -3.82,-2.187 -0.9,-5.602 12.5,-19.609 22.67,-25.723 -1.06,6.481 -4,19.782 -10.89,25.434 -2.08,1.707 -4.31,2.547 -6.79,2.547 z m 20.13,-33.449 -0.8,0.171 c -9.96,4.469 -29.68,22.309 -28.17,31.641 0.35,2.188 1.9,4.918 7.27,5.457 3.98,0.371 7.64,-0.719 10.84,-3.348 10.5,-8.609 12.72,-30.839 12.8,-31.781 l -0.8,-1.781 -1.14,-0.359"
         style="fill:#406fbf;fill-opacity:1;fill-rule:nonzero;stroke:none"
         id="path260" /><path
         d="m 3252.32,197.48 h -82.5 l -8.22,191.051 h 82.51 l 8.21,-191.051"
         style="fill:#f89e63;fill-opacity:1;fill-rule:nonzero;stroke:none"
         id="path262" /><path
         d="m 3869.2,371.699 -76.49,-21.027 -97.95,179.137 76.49,21.031 97.95,-179.141"
         style="fill:#f89e63;fill-opacity:1;fill-rule:nonzero;stroke:none"
         id="path264" /><path
         d="m 3781.25,359.059 82.51,42.211 c 3,1.539 6.67,0.781 8.82,-1.821 l 47.91,-57.859 c 4.96,-6 2.92,-15.129 -4.07,-18.559 -29.07,-14.242 -43.92,-19.711 -80.21,-38.281 -22.33,-11.418 -88.72,-60.801 -122.24,-69.531 -32.77,-8.539 -46.51,23.269 -33.58,29.84 58.01,29.492 81.46,77.832 91.24,103.382 1.76,4.61 5.22,8.368 9.62,10.618"
         style="fill:#17282f;fill-opacity:1;fill-rule:nonzero;stroke:none"
         id="path266" /><path
         d="m 3170.36,207.031 h 90.1 c 3.37,0 6.29,-2.351 7.03,-5.64 l 16.29,-73.332 c 1.69,-7.598 -4.08,-14.809 -11.87,-14.68 -32.5,0.562 -79.46,2.461 -120.31,2.461 -47.77,0 -89.02,-2.602 -145.03,-2.602 -33.87,0 -43.27,34.242 -29.09,37.344 64.54,14.117 117.24,15.629 173.01,50.02 6.06,3.738 12.75,6.429 19.87,6.429"
         style="fill:#17282f;fill-opacity:1;fill-rule:nonzero;stroke:none"
         id="path268" /><path
         d="m 3524.85,2612.35 c 8.6,-22.17 18.07,-43.78 27.62,-64.04 16.44,-35.05 32.83,-65.67 44.74,-86.83 10.62,-19.05 17.56,-30.33 17.56,-30.33 l 180.21,89.38 c 0,0 -72.6,208.72 -148.4,231.95 -77.68,23.59 -160.64,-40.62 -121.73,-140.13"
         style="fill:#17282f;fill-opacity:1;fill-rule:nonzero;stroke:none"
         id="path270" /><path
         d="m 3614.76,2431.13 c 0,0 -5.32,8.68 -13.77,23.63 8.46,-14.95 13.78,-23.61 13.78,-23.61 l 13.39,6.64 -13.4,-6.66 m -39.44,70.91 c -1.8,3.44 -3.62,6.97 -5.48,10.6 0.01,0.01 0.01,0.03 0.02,0.05 1.84,-3.64 3.66,-7.19 5.46,-10.65"
         style="fill:#c3c5c2;fill-opacity:1;fill-rule:nonzero;stroke:none"
         id="path272" /><path
         d="m 3614.77,2431.15 c 0,0 -5.32,8.66 -13.78,23.61 -1.2,2.12 -2.47,4.37 -3.78,6.73 -6.25,11.17 -13.74,24.9 -21.89,40.55 -1.8,3.46 -3.62,7.01 -5.46,10.65 7.96,36.46 19.16,67.49 34.85,79.03 21.59,-47.68 29.32,-102.06 30.71,-150.32 l -7.26,-3.61 -13.39,-6.64"
         style="fill:#111d23;fill-opacity:1;fill-rule:nonzero;stroke:none"
         id="path274" /><path
         d="m 3143.79,2479.24 c 0,-28.07 0.68,-58.96 2.25,-92.98 4.04,-92.54 14.15,-207.88 33.47,-351.18 h 441.24 c 3.03,67.72 -39.53,398.23 25.83,717.4 0,0 -75.7,15.16 -147.8,18.64 -56.37,2.69 -138.01,4.49 -187.54,0 -65.36,-6.07 -126.9,-22.91 -126.9,-22.91 0,0 -40.66,-45.93 -40.55,-268.97"
         style="fill:#17282f;fill-opacity:1;fill-rule:nonzero;stroke:none"
         id="path276" /><path
         d="m 3257.29,2610.23 c -7.83,-16.42 -14.55,-28.04 -21.94,-40.06 -7.27,-11.8 -14.6,-23.12 -22.26,-34.12 -15.16,-22.08 -31.11,-43.23 -47.79,-63.89 -33.44,-41.23 -69.53,-80.52 -111.34,-116.8 -20.83,-18.23 -43.46,-35.39 -69.02,-51.06 l -9.84,-5.74 -2.57,-1.47 -3.61,-1.81 -7.28,-3.5 c -9.77,-4.22 -19.66,-7.53 -29.4,-9.47 -19.49,-4.02 -37.82,-4.28 -54.66,-2.79 -33.74,3.57 -61.97,13.9 -87.84,26.29 -12.86,6.42 -25.12,13.25 -36.76,20.97 -11.93,7.7 -22.32,15.58 -34.06,25.53 l 35.43,60.37 c 43.24,-11.33 92.1,-21.53 125.65,-16.74 8.2,1 15.07,3.04 19.81,5.53 2.38,1.29 4.23,2.46 5.74,3.7 l 1,0.97 0.52,0.42 1.43,1.01 6.06,4.27 c 16.28,11.98 32.58,26.65 48.62,42.36 31.95,31.71 62.29,67.95 90.91,105.4 14.3,18.76 28.16,37.96 41.4,57.19 6.54,9.65 13.02,19.26 19.02,28.71 5.84,9.27 11.96,19.22 15.12,25.33 l 127.66,-60.6"
         style="fill:#f89e63;fill-opacity:1;fill-rule:nonzero;stroke:none"
         id="path278" /><path
         d="m 2772.19,2403.82 -76.09,36.08 -6.87,-102.05 c 0,0 59.14,-10.25 90.45,12.85 l -7.49,53.12"
         style="fill:#f89e63;fill-opacity:1;fill-rule:nonzero;stroke:none"
         id="path280" /><path
         d="m 2600.18,2422.54 29.32,-77.78 59.73,-6.91 6.87,102.05 -95.92,-17.36"
         style="fill:#f89e63;fill-opacity:1;fill-rule:nonzero;stroke:none"
         id="path282" /><path
         d="m 3311.82,2664.29 c -2.61,-78.84 -164.97,-260.48 -164.97,-260.48 l -171.58,112.05 c 0,0 54.4,101.76 125.03,175.41 106.56,111.09 214.64,67.63 211.52,-26.98"
         style="fill:#17282f;fill-opacity:1;fill-rule:nonzero;stroke:none"
         id="path284" /><path
         d="m 3248.38,290 h -0.04 l -4.23,98.48 h 0.04 l 4.23,-98.48"
         style="fill:#c3c5c2;fill-opacity:1;fill-rule:nonzero;stroke:none"
         id="path286" /><path
         d="m 3248.34,290 h -82.5 l -4.22,98.48 h 82.49 l 4.23,-98.48"
         style="fill:#dc834c;fill-opacity:1;fill-rule:nonzero;stroke:none"
         id="path288" /><path
         d="m 3821.77,458.449 -10.75,19.66 0.05,0.012 10.75,-19.66 -0.05,-0.012"
         style="fill:#c3c5c2;fill-opacity:1;fill-rule:nonzero;stroke:none"
         id="path290" /><path
         d="m 3745.3,437.43 -9.83,17.961 75.55,22.718 10.75,-19.66 -76.47,-21.019"
         style="fill:#dc834c;fill-opacity:1;fill-rule:nonzero;stroke:none"
         id="path292" /><path
         d="m 3469.55,3029.21 c -3.31,-81.81 -1.1,-129.86 -41.49,-172.66 -60.76,-64.38 -162.4,-29.07 -183.59,52.08 -19.08,73.05 -10.46,194.57 68.84,228.76 78.13,33.68 159.55,-26.37 156.24,-108.18"
         style="fill:#f89e63;fill-opacity:1;fill-rule:nonzero;stroke:none"
         id="path294" /><path
         d="m 3306.67,2990.22 c -29.45,20.95 -58.34,64.28 -56.11,96.51 -27.23,1.11 -45.56,46.11 -30.56,78.89 9.44,-21.12 41.93,-5.56 54.58,11.11 -6.8,16.11 -5.69,42.77 40.98,61.66 -3.89,-13.6 -1.85,-36.45 45,-20 56.94,20 156.98,6.67 127.66,-61.1 40.11,-7.23 92.06,-89.95 47.89,-133.5 -44.17,-43.56 -53.33,-113.73 -91.11,-120.95 -37.78,-7.22 -136.11,-9.69 -138.33,87.38"
         style="fill:#17282f;fill-opacity:1;fill-rule:nonzero;stroke:none"
         id="path296" /><path
         d="m 3461.63,3159.99 c 26.25,12.01 68.57,6.86 91.36,-25.68 -31.04,12.69 -48.8,20.96 -91.36,25.68"
         style="fill:#17282f;fill-opacity:1;fill-rule:nonzero;stroke:none"
         id="path298" /><path
         d="m 3328.24,2993.7 c -0.62,-19.17 -9.01,-37.43 -19.38,-49.51 -15.59,-18.17 -32.68,-7.6 -36.13,13.91 -3.1,19.35 1.27,52.13 20.67,62.45 19.11,10.16 35.54,-4.92 34.84,-26.85"
         style="fill:#f89e63;fill-opacity:1;fill-rule:nonzero;stroke:none"
         id="path300" /><path
         d="m 3335.99,2035.08 c 0,0 -38.92,-624.29 34.86,-854.48 116.88,-364.62 325.21,-737.061 325.21,-737.061 l 149.01,44.813 c 0,0 -163.86,393.148 -217.76,700.288 -48.41,275.92 -6.58,621.07 -6.58,846.44 -102.79,0 -284.74,0 -284.74,0"
         style="fill:#406fbf;fill-opacity:1;fill-rule:nonzero;stroke:none"
         id="path302" /><path
         d="m 3335.33,1397.99 c -13.34,167.21 -10.25,367.19 -5.65,497.99 13.17,3.85 25.42,6.02 36.28,6.02 23.48,0 40.48,-10.16 46.25,-35.49 21.99,-96.74 -43.99,-351.81 -76.88,-468.52"
         style="fill:#3563b7;fill-opacity:1;fill-rule:nonzero;stroke:none"
         id="path304" /><path
         d="m 3654,486.25 38.88,-46.129 162.8,48.961 -20.68,55.09 -181,-57.922"
         style="fill:#17282f;fill-opacity:1;fill-rule:nonzero;stroke:none"
         id="path306" /><path
         d="m 3179.45,2035.08 c 0,0 -124.26,-526.71 -133.01,-778.31 -9.82,-282.161 88.66,-947.7 88.66,-947.7 h 139.76 c 0,0 17.21,670.719 23.42,927.73 6.78,280.18 171.24,798.28 171.24,798.28 h -290.07"
         style="fill:#406fbf;fill-opacity:1;fill-rule:nonzero;stroke:none"
         id="path308" /><path
         d="m 3108.2,364.738 7.89,-58.027 h 170.01 l 4.6,51.789 -182.5,6.238"
         style="fill:#17282f;fill-opacity:1;fill-rule:nonzero;stroke:none"
         id="path310" /><path
         d="m 3241.25,2790.45 c 18.9,6.55 163.06,24.87 267.68,19.28 59.72,-3.18 93.41,-9.69 117.8,-21.5 24.4,-11.81 -19.32,-71.26 -39.5,-78.52 8.18,-22.8 -37.33,-51.89 -63.28,-65.69 -10.39,-21.45 -112.62,-41.24 -172.68,4.81 -46.11,35.35 -164,122.92 -110.02,141.62"
         style="fill:#406fbf;fill-opacity:1;fill-rule:nonzero;stroke:none"
         id="path312" /></g></g></svg>
